<svg xmlns="http://www.w3.org/2000/svg" width="57" height="57" viewBox="0 0 57 57">
  <g id="그룹_10" data-name="그룹 10" transform="translate(-7750 117)">
    <rect id="사각형_66" data-name="사각형 66" width="57" height="57" transform="translate(7750 -117)" fill="none"/>
    <path id="패스_9" data-name="패스 9" d="M0,38.734s3.8,5.876,6.912,6.221,2.073,2.074,7.257,1.382,3.8-3.456,3.8-7.6S12.787,32.557,11.4,24.068s-1.037-7.106,2.765-12.982S23.847,2.1,27.3,2.1,30.759.372,35.943.027s9.33,2.764,11.4,5.184.691,3.456-1.728,2.073-3.11-4.147-7.257-4.147-7.6-.691-7.949,2.074,1.037,8.64,2.765,10.368,5.529,9.676,5.184,13.478-.346,7.949-4.147,11.06-3.8,3.111-5.53,3.111,1.728-5.184,1.728-6.222-4.839-12.938-4.839-12.938a1.952,1.952,0,0,0-1.394,2.916A64.569,64.569,0,0,0,27.3,32.858a17.912,17.912,0,0,1,0,4.493c-.346,1.728,1.037,1.382-1.382,4.147s-2.073,4.125-5.184,5S9.677,49.1,8.64,48.066s-5.184-1.382-6.911-3.111S0,38.734,0,38.734" transform="translate(7751.546 -110.999)" fill="#6aae27"/>
  </g>
</svg>
