<svg width="169" height="56" viewBox="0 0 169 56" fill="none" xmlns="http://www.w3.org/2000/svg">
<g clip-path="url(#clip0_44_6)">
<path d="M49.4366 42.5813C48.2818 42.1691 48.063 41.8944 48.063 41.4216C48.063 40.9489 48.3953 40.5731 49.1854 40.5731C49.7648 40.5731 50.1497 40.763 50.5711 41.1105L50.9844 40.6054C50.4982 40.2175 50.0039 39.9912 49.2259 39.9912C48.1481 39.9912 47.4188 40.5407 47.4188 41.462C47.4188 42.2944 47.8402 42.6985 49.0881 43.143C50.1457 43.5228 50.4658 43.8258 50.4658 44.3592C50.4658 44.9693 49.9877 45.3492 49.2219 45.3492C48.6262 45.3492 48.1238 45.0744 47.6862 44.6582L47.2607 45.135C47.7146 45.5957 48.4155 45.9351 49.2016 45.9351C50.405 45.9351 51.1141 45.232 51.1141 44.3309C51.1141 43.4298 50.721 43.046 49.4407 42.5853L49.4366 42.5813Z" fill="white"/>
<path d="M53.7312 41.4339C53.1679 41.4339 52.6574 41.5712 52.2765 41.7773L52.5115 42.2784C52.8641 42.0723 53.2368 41.947 53.6906 41.947C54.3227 41.947 54.6307 42.2582 54.6307 42.9047V43.4138C54.3754 43.2724 53.9824 43.1633 53.5488 43.1633C52.6939 43.1633 51.8916 43.5754 51.8916 44.5452C51.8916 45.5877 52.6007 45.9271 53.2733 45.9271C53.8973 45.9271 54.3227 45.6362 54.6307 45.3089V45.8382H55.2466V42.8239C55.2466 41.8218 54.6631 41.4258 53.7312 41.4258V41.4339ZM54.6266 44.7836C54.3633 45.1432 53.9419 45.4301 53.3827 45.4301C52.8519 45.4301 52.4953 45.1513 52.4953 44.5088C52.4953 43.9674 52.8762 43.6603 53.5124 43.6603C54.0391 43.6603 54.343 43.7573 54.6266 43.9108V44.7876V44.7836Z" fill="white"/>
<path d="M61.4624 43.3125V45.842H62.0783V43.2115C62.0783 41.9508 61.5272 41.4336 60.6439 41.4336C59.9389 41.4336 59.5864 41.7609 59.3311 42.173C59.1245 41.7609 58.7558 41.4336 58.1439 41.4336C57.6334 41.4336 57.2687 41.6801 57.0459 42.0518V41.5265H56.4219V45.846H57.0459V43.3166C57.0459 42.3589 57.4146 41.967 58.0102 41.967C58.6058 41.967 58.9421 42.3266 58.9421 43.3166V45.846H59.5621V43.3166C59.5621 42.3589 59.9389 41.967 60.5264 41.967C61.1504 41.967 61.4584 42.3266 61.4584 43.3166L61.4624 43.3125Z" fill="white"/>
<path d="M64.5626 43.3288C63.8292 42.9975 63.6104 42.8561 63.6104 42.4884C63.6104 42.1732 63.8697 41.955 64.3276 41.955C64.7854 41.955 65.0691 42.0762 65.4054 42.3429L65.7498 41.8863C65.4216 41.6156 64.9597 41.4297 64.3681 41.4297C63.578 41.4297 63.0148 41.8742 63.0148 42.5288C63.0148 43.2197 63.3754 43.4824 64.2465 43.8541C65.0123 44.1814 65.2676 44.3794 65.2676 44.735C65.2676 45.1552 64.988 45.4017 64.3924 45.4017C63.9629 45.4017 63.5577 45.2279 63.2133 44.9249L62.8486 45.3734C63.2619 45.7047 63.7806 45.927 64.3762 45.927C65.1258 45.927 65.8592 45.5593 65.8592 44.7067C65.8592 43.9349 65.3811 43.6965 64.5585 43.3248L64.5626 43.3288Z" fill="white"/>
<path d="M69.4734 44.0479C69.4734 44.9934 68.9993 45.3934 68.4037 45.3934C67.7068 45.3934 67.3786 44.9773 67.3786 44.0479V41.5225H66.7627V44.153C66.7627 45.3934 67.3664 45.9309 68.2781 45.9309C68.8251 45.9309 69.2262 45.6763 69.4734 45.3126V45.842H70.0933V41.5225H69.4734V44.0479Z" fill="white"/>
<path d="M74.4695 45.842V43.2115C74.4695 41.967 73.8657 41.4336 72.95 41.4336C72.4071 41.4336 72.0019 41.6882 71.7588 42.0518V41.5265H71.1348V45.846H71.7588V43.3166C71.7588 42.371 72.2247 41.967 72.8244 41.967C73.5173 41.967 73.8495 42.3872 73.8495 43.3166V45.846H74.4695V45.842Z" fill="white"/>
<path d="M76.4179 46.9574L76.6165 47.4261C78.2251 47.3776 78.8085 46.7513 78.8085 45.4502V41.5186H78.1886V42.0035C77.8847 41.656 77.5119 41.4297 76.969 41.4297C76.0614 41.4297 75.332 42.2176 75.332 43.749C75.332 45.2805 76.0209 45.927 76.8839 45.927C77.4714 45.927 77.8847 45.6361 78.1886 45.3088V45.531C78.1886 46.5371 77.8604 46.917 76.4139 46.9533L76.4179 46.9574ZM77.046 45.3936C76.3612 45.3936 75.9479 44.8279 75.9479 43.741C75.9479 42.5813 76.3004 41.9631 77.0217 41.9631C77.5363 41.9631 77.9536 42.2499 78.1927 42.6096V44.7713C77.8888 45.1512 77.5079 45.3936 77.046 45.3936Z" fill="white"/>
<path d="M85.6398 42.9207C85.6398 40.9448 84.5215 40.0801 83.0061 40.0801H81.4785V45.8421H82.8926C84.4364 45.8421 85.6398 45.0097 85.6398 42.9207ZM82.1228 40.6619H82.9575C84.2865 40.6619 84.9956 41.4701 84.9956 42.9409C84.9956 44.5976 84.2176 45.2562 82.9737 45.2562H82.1228V40.6619Z" fill="white"/>
<path d="M87.2889 42.0557V41.5224H86.6689V45.8419H87.2889V43.3043C87.2889 42.48 87.6292 41.9992 88.233 41.9992C88.5207 41.9992 88.707 42.0638 88.8813 42.1648L89.0352 41.5426C88.8894 41.4779 88.6827 41.4375 88.3586 41.4375C87.8926 41.4375 87.4834 41.7163 87.2889 42.0598V42.0557Z" fill="white"/>
<path d="M92.7392 45.4297L92.4475 44.9852C92.0504 45.2479 91.7546 45.3974 91.2482 45.3974C90.5431 45.3974 90.1015 44.8115 90.0447 43.8942H92.9297C92.9499 43.7932 92.958 43.7043 92.958 43.5589C92.958 42.3265 92.3422 41.4375 91.2117 41.4375C90.1825 41.4375 89.4248 42.2901 89.4248 43.6599C89.4248 45.361 90.3892 45.9348 91.1833 45.9348C91.8357 45.9348 92.2166 45.761 92.7392 45.4337V45.4297ZM91.2117 41.9668C91.9694 41.9668 92.3341 42.5527 92.3827 43.3892H90.0447C90.1177 42.4234 90.5674 41.9668 91.2117 41.9668Z" fill="white"/>
<path d="M95.0247 45.931C95.6446 45.931 96.0701 45.6401 96.374 45.3128V45.8421H96.9939V42.8278C96.9939 41.8257 96.4105 41.4297 95.4785 41.4297C94.9153 41.4297 94.4048 41.5671 94.0239 41.7731L94.2548 42.2742C94.6114 42.0681 94.9801 41.9429 95.4339 41.9429C96.0701 41.9429 96.374 42.254 96.374 42.9005V43.4096C96.1187 43.2682 95.7297 43.1591 95.2962 43.1591C94.4372 43.1591 93.6309 43.5713 93.6309 44.541C93.6309 45.5835 94.344 45.9229 95.0207 45.9229L95.0247 45.931ZM95.2638 43.6561C95.7905 43.6561 96.0985 43.7531 96.378 43.9066V44.7835C96.1147 45.1431 95.6933 45.43 95.1341 45.43C94.6074 45.43 94.2467 45.1512 94.2467 44.5087C94.2467 43.9672 94.6317 43.6602 95.2638 43.6602V43.6561Z" fill="white"/>
<path d="M103.209 43.3125V45.842H103.829V43.2115C103.829 41.9508 103.278 41.4336 102.394 41.4336C101.694 41.4336 101.337 41.7609 101.086 42.173C100.879 41.7609 100.51 41.4336 99.8985 41.4336C99.3839 41.4336 99.0233 41.6801 98.8005 42.0518V41.5265H98.1846V45.846H98.8005V43.3166C98.8005 42.3589 99.1732 41.967 99.7689 41.967C100.364 41.967 100.705 42.3266 100.705 43.3166V45.846H101.321V43.3166C101.321 42.3589 101.698 41.967 102.289 41.967C102.913 41.967 103.221 42.3266 103.221 43.3166L103.209 43.3125Z" fill="white"/>
<path d="M49.4366 51.1515C48.2778 50.7393 48.0671 50.4686 48.0671 49.9918C48.0671 49.515 48.3993 49.1473 49.1894 49.1473C49.7689 49.1473 50.1578 49.3332 50.5752 49.6807L50.9885 49.1796C50.5022 48.7957 50.0039 48.5654 49.23 48.5654C48.1481 48.5654 47.4228 49.1069 47.4228 50.0362C47.4228 50.8686 47.8442 51.2687 49.0922 51.7131C50.1497 52.097 50.4698 52.396 50.4698 52.9334C50.4698 53.5395 49.9917 53.9194 49.2219 53.9194C48.6262 53.9194 48.1238 53.6446 47.6862 53.2284L47.2607 53.7052C47.7146 54.1658 48.4155 54.5012 49.2016 54.5012C50.405 54.5012 51.11 53.8022 51.11 52.8971C51.11 51.9919 50.717 51.6121 49.4407 51.1515H49.4366Z" fill="white"/>
<path d="M53.7395 50.5374C54.1771 50.5374 54.4648 50.691 54.7768 50.9738L55.1496 50.5132C54.8092 50.2142 54.3594 50 53.78 50C52.8724 50 51.9121 50.6748 51.9121 52.2709C51.9121 53.7781 52.7833 54.4973 53.7355 54.4973C54.3432 54.4973 54.7646 54.267 55.1293 53.8952L54.7565 53.5033C54.4607 53.7902 54.1812 53.9599 53.7598 53.9599C52.994 53.9599 52.5361 53.277 52.5361 52.2143C52.5361 51.1516 53.0588 50.5293 53.7355 50.5293L53.7395 50.5374Z" fill="white"/>
<path d="M57.7957 50.004C57.2528 50.004 56.8435 50.2585 56.5964 50.6222V48.5938H55.9805V54.4204H56.5964V51.891C56.5964 50.9454 57.0704 50.5414 57.6701 50.5414C58.367 50.5414 58.6952 50.9576 58.6952 51.891V54.4204H59.3152V51.7819C59.3152 50.5414 58.7114 50.004 57.7957 50.004Z" fill="white"/>
<path d="M62.0788 50.0039C61.0253 50.0039 60.1865 50.7918 60.1865 52.2586C60.1865 53.7254 60.9929 54.5052 62.0463 54.5052C63.0998 54.5052 63.9467 53.6931 63.9467 52.2263C63.9467 50.7595 63.1322 50.0039 62.0788 50.0039ZM62.0666 53.9678C61.3129 53.9678 60.8065 53.3779 60.8065 52.2424C60.8065 51.107 61.3129 50.5413 62.0666 50.5413C62.8202 50.5413 63.3267 51.107 63.3267 52.2424C63.3267 53.3779 62.8162 53.9678 62.0666 53.9678Z" fill="white"/>
<path d="M65.4979 48.5898H64.8779V54.4165H65.4979V48.5898Z" fill="white"/>
<path d="M68.3306 50.0039C67.7674 50.0039 67.2569 50.1453 66.88 50.3514L67.111 50.8565C67.4676 50.6504 67.8403 50.5252 68.2942 50.5252C68.9262 50.5252 69.2342 50.8403 69.2342 51.4788V51.9919C68.9789 51.8505 68.5899 51.7414 68.1564 51.7414C67.2974 51.7414 66.4951 52.1536 66.4951 53.1274C66.4951 54.1699 67.2042 54.5052 67.8809 54.5052C68.5008 54.5052 68.9262 54.2183 69.2342 53.8911V54.4204H69.8541V51.4101C69.8541 50.3999 69.2666 50.0079 68.3347 50.0079L68.3306 50.0039ZM69.2301 53.3536C68.9708 53.7092 68.5413 54.0002 67.9862 54.0002C67.4595 54.0002 67.1029 53.7213 67.1029 53.0789C67.1029 52.5334 67.4838 52.2344 68.1199 52.2344C68.6467 52.2344 68.9506 52.3233 69.2301 52.4809V53.3536Z" fill="white"/>
<path d="M71.6492 50.6305V50.089H71.0293V54.4126H71.6492V51.875C71.6492 51.0548 71.9815 50.5658 72.5893 50.5658C72.881 50.5658 73.0674 50.6305 73.2416 50.7315L73.3996 50.1052C73.2497 50.0405 73.0471 49.9961 72.723 49.9961C72.2611 49.9961 71.8437 50.2749 71.6533 50.6264L71.6492 50.6305Z" fill="white"/>
<path d="M75.7737 51.903C75.0403 51.5717 74.8174 51.4222 74.8174 51.0626C74.8174 50.7514 75.0808 50.5292 75.5346 50.5292C75.9884 50.5292 76.2801 50.6545 76.6165 50.9171L76.9609 50.4645C76.6286 50.1938 76.1707 50.0039 75.5751 50.0039C74.7891 50.0039 74.2177 50.4484 74.2177 51.107C74.2177 51.7657 74.5824 52.0606 75.4495 52.4283C76.2153 52.7556 76.4706 52.9577 76.4706 53.3092C76.4706 53.7335 76.191 53.9759 75.5994 53.9759C75.1659 53.9759 74.7647 53.8022 74.4163 53.4991L74.0557 53.9517C74.469 54.283 74.9876 54.5012 75.5832 54.5012C76.3328 54.5012 77.0662 54.1295 77.0662 53.2849C77.0662 52.5091 76.5881 52.2748 75.7696 51.903H75.7737Z" fill="white"/>
<path d="M79.8945 50.004C79.3434 50.004 78.9423 50.2585 78.6951 50.6222V48.5938H78.0752V54.4204H78.6951V51.891C78.6951 50.9454 79.1651 50.5414 79.7689 50.5414C80.4618 50.5414 80.79 50.9576 80.79 51.891V54.4204H81.4099V51.7819C81.4099 50.5414 80.8102 50.004 79.8945 50.004Z" fill="white"/>
<path d="M83.2497 50.0889H82.6338V54.4124H83.2497V50.0889Z" fill="white"/>
<path d="M82.9537 48.4404C82.7024 48.4404 82.5039 48.6384 82.5039 48.8889C82.5039 49.1395 82.7024 49.3253 82.9537 49.3253C83.1846 49.3253 83.3832 49.1233 83.3832 48.8889C83.3832 48.6384 83.1846 48.4404 82.9537 48.4404Z" fill="white"/>
<path d="M86.4217 50.0039C85.8382 50.0039 85.425 50.2948 85.117 50.6221V50.0928H84.4971V56.0043H85.117V53.9315C85.4209 54.2749 85.7937 54.5052 86.3407 54.5052C87.2442 54.5052 87.9736 53.7133 87.9736 52.1859C87.9736 50.6585 87.2848 50.0039 86.4217 50.0039ZM86.288 53.9678C85.7775 53.9678 85.3561 53.6809 85.117 53.3173V51.1595C85.4209 50.7838 85.8018 50.5373 86.2637 50.5373C86.9525 50.5373 87.3658 51.103 87.3658 52.1899C87.3658 53.3496 87.0092 53.9638 86.2921 53.9638L86.288 53.9678Z" fill="white"/>
<path d="M91.2517 49.2362H93.9989V48.6543H90.6074V54.4163H91.2517V51.7293H92.836V51.1474H91.2517V49.2362Z" fill="white"/>
<path d="M95.8797 50.0039C94.8262 50.0039 93.9834 50.7918 93.9834 52.2586C93.9834 53.7254 94.7938 54.5052 95.8473 54.5052C96.9008 54.5052 97.7476 53.6931 97.7476 52.2263C97.7476 50.7595 96.9413 50.0039 95.8797 50.0039ZM95.8675 53.9678C95.1139 53.9678 94.6155 53.3779 94.6155 52.2424C94.6155 51.107 95.1179 50.5413 95.8675 50.5413C96.6171 50.5413 97.1317 51.107 97.1317 52.2424C97.1317 53.3779 96.6212 53.9678 95.8675 53.9678Z" fill="white"/>
<path d="M101.163 52.6183C101.163 53.5639 100.697 53.9679 100.093 53.9679C99.4003 53.9679 99.068 53.5517 99.068 52.6183V50.0889H98.4521V52.7234C98.4521 53.9639 99.0559 54.5013 99.9716 54.5013C100.511 54.5013 100.916 54.2508 101.163 53.8871V54.4165H101.787V50.0929H101.163V52.6224V52.6183Z" fill="white"/>
<path d="M104.639 50.004C104.097 50.004 103.691 50.2586 103.444 50.6223V50.0929H102.824V54.4165H103.444V51.887C103.444 50.9415 103.914 50.5374 104.518 50.5374C105.211 50.5374 105.539 50.9536 105.539 51.887V54.4165H106.159V51.7779C106.159 50.5374 105.555 50 104.639 50V50.004Z" fill="white"/>
<path d="M109.883 50.5819C109.575 50.2344 109.206 50 108.659 50C107.752 50 107.026 50.788 107.026 52.3234C107.026 53.8589 107.711 54.5014 108.578 54.5014C109.166 54.5014 109.575 54.2145 109.879 53.8872V54.4165H110.499V48.5898H109.879V50.5819H109.883ZM109.883 53.3457C109.575 53.7215 109.198 53.968 108.736 53.968C108.051 53.968 107.638 53.4023 107.638 52.3154C107.638 51.1516 107.991 50.5375 108.712 50.5375C109.222 50.5375 109.64 50.8243 109.883 51.188V53.3417V53.3457Z" fill="white"/>
<path d="M113.124 50.0039C112.565 50.0039 112.054 50.1453 111.673 50.3514L111.9 50.8565C112.257 50.6504 112.63 50.5252 113.083 50.5252C113.715 50.5252 114.019 50.8403 114.019 51.4788V51.9919C113.764 51.8505 113.375 51.7414 112.937 51.7414C112.083 51.7414 111.28 52.1536 111.28 53.1274C111.28 54.1699 111.993 54.5052 112.67 54.5052C113.29 54.5052 113.715 54.2183 114.019 53.8911V54.4204H114.639V51.4101C114.639 50.3999 114.056 50.0079 113.12 50.0079L113.124 50.0039ZM114.023 53.3536C113.76 53.7092 113.343 54.0002 112.775 54.0002C112.253 54.0002 111.9 53.7213 111.9 53.0789C111.9 52.5334 112.277 52.2344 112.913 52.2344C113.44 52.2344 113.748 52.3233 114.023 52.4809V53.3536Z" fill="white"/>
<path d="M116.617 48.5898H115.993V50.0889H115.458V50.6102H115.993V53.5235C115.993 54.2387 116.285 54.4973 116.823 54.4973C117.148 54.4973 117.379 54.4489 117.618 54.3519L117.662 53.8185C117.464 53.8993 117.302 53.9397 117.05 53.9397C116.722 53.9397 116.617 53.8064 116.617 53.4225V50.6102H117.691V50.0889H116.617V48.5898Z" fill="white"/>
<path d="M119.097 48.4404C118.841 48.4404 118.639 48.6384 118.639 48.8889C118.639 49.1395 118.841 49.3253 119.097 49.3253C119.327 49.3253 119.522 49.1233 119.522 48.8889C119.522 48.6384 119.323 48.4404 119.097 48.4404Z" fill="white"/>
<path d="M119.392 50.0889H118.772V54.4124H119.392V50.0889Z" fill="white"/>
<path d="M122.221 50.0039C121.167 50.0039 120.324 50.7918 120.324 52.2586C120.324 53.7254 121.131 54.5052 122.188 54.5052C123.246 54.5052 124.084 53.6931 124.084 52.2263C124.084 50.7595 123.274 50.0039 122.221 50.0039ZM122.204 53.9678C121.455 53.9678 120.948 53.3779 120.948 52.2424C120.948 51.107 121.455 50.5413 122.204 50.5413C122.954 50.5413 123.468 51.107 123.468 52.2424C123.468 53.3779 122.958 53.9678 122.204 53.9678Z" fill="white"/>
<path d="M126.795 50.004C126.252 50.004 125.847 50.2586 125.596 50.6223V50.0929H124.976V54.4165H125.596V51.887C125.596 50.9415 126.066 50.5374 126.669 50.5374C127.362 50.5374 127.694 50.9536 127.694 51.887V54.4165H128.31V51.7779C128.31 50.5374 127.707 50 126.795 50V50.004Z" fill="white"/>
<path d="M71.0987 28.7373C68.6108 28.7413 66.5605 30.6809 66.5605 33.1134C66.5605 35.5459 68.6108 37.4652 71.0987 37.4733C73.6108 37.4652 75.6408 35.5216 75.6408 33.1134C75.6408 30.7051 73.6108 28.7413 71.0987 28.7373ZM71.0379 35.4772C69.7372 35.4772 68.7567 34.4185 68.7567 33.1134C68.7567 31.8082 69.8061 30.7294 71.1027 30.7294C72.3993 30.7294 73.4123 31.788 73.4123 33.1134C73.4123 34.4387 72.3507 35.4772 71.0419 35.4772H71.0379Z" fill="white"/>
<path d="M50.2757 25.7274C50.9686 26.4102 51.7627 27.0083 52.5448 27.3921L52.6258 27.4366L53.967 25.8567L53.8373 25.7839C52.565 25.097 51.5683 24.2283 50.9159 23.1332C50.2676 22.0544 49.9354 20.8017 49.9354 19.3026V17.8965H47.5366V19.1531C47.5366 20.7775 47.1679 22.0544 46.475 23.1736C45.7011 24.4141 44.5544 25.4122 43.0877 26.3375L42.958 26.4183L44.4126 27.9214L44.4937 27.877C45.3608 27.4083 46.2806 26.685 47.0788 25.8769C47.7716 25.1697 48.3713 24.4141 48.736 23.6989C49.0885 24.402 49.6274 25.1172 50.2757 25.7314V25.7274Z" fill="white"/>
<path d="M47.6787 36.4395H57.7193V29.5986H47.6787V36.4395ZM49.9356 31.5301H55.4624V34.5081H49.9356V31.5301Z" fill="white"/>
<path d="M81.1553 36.4395H92.5087V29.5986H81.1553V36.4395ZM83.3879 31.5301H90.2801V34.5081H83.3879V31.5301Z" fill="white"/>
<path d="M57.7599 17.4922H55.5273V28.8142H57.7599V23.8038H60.3734V21.7915H57.7599V17.4922Z" fill="white"/>
<path d="M104.048 26.3049C104.781 26.9392 105.62 27.4726 106.41 27.8161L106.491 27.8524L107.699 26.224L107.569 26.1594C106.418 25.5735 105.393 24.8462 104.656 23.9572C103.906 23.0521 103.46 21.9611 103.46 20.6479V20.264H106.783V18.3164H97.7633V20.264H101.082V20.7327C101.082 21.9288 100.685 23.044 100.024 24.0097C99.2504 25.1694 98.1199 26.1028 97.0218 26.7089L96.876 26.7857L98.359 28.3171L98.44 28.2767C99.2382 27.8242 100.122 27.1413 100.875 26.3736C101.479 25.7432 102.022 25.0765 102.354 24.4098C102.755 25.0563 103.371 25.7028 104.052 26.3049H104.048Z" fill="white"/>
<path d="M120.195 31.574H128.311V36.435H130.564V29.6426H120.195V31.574Z" fill="white"/>
<path d="M125.795 23.7877C125.795 22.7169 125.313 21.731 124.6 20.9794H126.828V19.052H122.574V16.9307H120.155V19.052H115.799V20.9794H118.076C117.379 21.731 116.897 22.7089 116.897 23.7877C116.897 26.1758 118.87 28.1153 121.338 28.1234C123.805 28.1153 125.791 26.1758 125.795 23.7877ZM119.048 23.6988C119.048 22.3775 120.167 21.2582 121.338 21.2582C122.509 21.2582 123.623 22.3816 123.627 23.6988C123.627 24.9999 122.509 26.1232 121.338 26.1273C120.163 26.1232 119.052 24.9999 119.048 23.6988Z" fill="white"/>
<path d="M130.563 17.4922H128.335V28.8546H130.563V24.519H133.185V22.5067H130.563V17.4922Z" fill="white"/>
<path d="M111.653 17.4922H109.425V28.8546H111.653V23.8038H114.271V21.7915H111.653V17.4922Z" fill="white"/>
<path d="M73.8253 20.8621H70.3164V22.8542H73.8253V29.2142H76.0579V17.4922H73.8253V20.8621Z" fill="white"/>
<path d="M68.1567 26.0223C68.8536 26.7012 69.668 27.2992 70.446 27.7033L70.5311 27.7517L71.8722 26.1718L71.7426 26.0991C70.4703 25.4324 69.4938 24.5677 68.8374 23.4888C68.1729 22.418 67.8406 21.1169 67.8406 19.6178V17.8965H65.4379V19.4724C65.4379 21.0967 65.0732 22.3695 64.3965 23.4686C63.6267 24.7293 62.4557 25.7354 60.9889 26.6527L60.8633 26.7335L62.326 28.2407L62.3989 28.1922C63.262 27.7194 64.1615 27.0365 64.9597 26.2567C65.681 25.5415 66.2806 24.7616 66.6453 24.0141C66.9897 24.697 67.5165 25.392 68.1567 26.0264V26.0223Z" fill="white"/>
<path d="M106.868 28.7373C104.38 28.7413 102.33 30.6809 102.326 33.1134C102.33 35.5216 104.376 37.4652 106.868 37.4733C109.376 37.4652 111.41 35.5216 111.41 33.1134C111.41 30.7051 109.376 28.7413 106.868 28.7373ZM106.804 35.4772C105.507 35.4772 104.518 34.4185 104.518 33.1134C104.518 31.8082 105.564 30.7294 106.868 30.7294C108.173 30.7294 109.174 31.788 109.178 33.1134C109.178 34.4145 108.112 35.4772 106.804 35.4772Z" fill="white"/>
<path d="M83.8736 23.9854H86.1062V18.2031H80.0811V20.1265H83.8736V23.9854Z" fill="white"/>
<path d="M90.5756 23.9854H92.8123V18.2031H86.7871V20.1265H90.5756V23.9854Z" fill="white"/>
<path d="M147.484 22.6117H145.608V17.8074H143.497V35.9501H145.608V24.7937H147.484V36.435H149.672V17.4922H147.484V22.6117Z" fill="white"/>
<path d="M140.402 25.1212C139.9 24.0262 139.693 22.8019 139.693 21.2987V20.5835H142.225V18.543H134.867V20.5835H137.481V21.3391C137.481 22.7615 137.294 23.9252 136.845 25.004C136.322 26.2445 135.443 27.3598 134.041 28.5558L133.943 28.6447L135.329 30.0145L135.414 29.9499C136.111 29.4367 136.84 28.6932 137.448 27.9255C137.963 27.279 138.396 26.6082 138.668 26.0183C138.947 26.592 139.385 27.2507 139.896 27.8649C140.487 28.5841 141.156 29.267 141.796 29.6751L141.881 29.7317L143.048 28.3417L142.955 28.2568C141.699 27.1658 140.921 26.192 140.41 25.1172L140.402 25.1212Z" fill="white"/>
<path d="M78.2139 26.6767H85.6248V28.8344H88.0437V26.6767H95.5721V24.7412H78.2139V26.6767Z" fill="white"/>
<path d="M162.384 26.0584H154.839V20.3327H160.585V18.3164H152.578V28.0141H162.384V26.0584Z" fill="white"/>
<path d="M158.116 30.3984H155.859V36.4352H166.415V34.4472H158.116V30.3984Z" fill="white"/>
<path d="M166.362 22.7371V17.4883H164.134V31.465H166.362V24.7494H169V22.7371H166.362Z" fill="white"/>
<path d="M47.3304 11.6453L41.5483 9.25723L47.3304 6.86918L46.3012 4.40032L40.5232 6.78837L42.9179 1.0223L40.4381 0L38.0475 5.76607L35.6529 0L33.1731 1.0223L35.5678 6.78837L29.7898 4.40032L28.7646 6.86918L34.5426 9.25723L28.7646 11.6453L29.7898 14.1142L35.5678 11.7261L33.1731 17.4922L35.6529 18.5145L38.0475 12.7524L40.4381 18.5145L42.9179 17.4881L40.5232 11.7261L46.3012 14.1142L47.3304 11.6453Z" fill="white"/>
<path d="M9.91933 27.7313H13.7646V17.4922H0.616211V20.9429H9.91933V27.7313Z" fill="white"/>
<path d="M24.9193 27.7313H28.7646V17.4922H15.6162V20.9429H24.9193V27.7313Z" fill="white"/>
<path d="M0 33.0289H24.9191V38.302H28.7643V29.5781H0V33.0289Z" fill="white"/>
<path d="M9.30273 54.4156H28.7639V40.0752H9.30273V54.4156ZM13.1439 43.53H24.9187V50.9689H13.1439V43.53Z" fill="white"/>
</g>
<defs>
<clipPath id="clip0_44_6">
<rect width="169" height="56" fill="white"/>
</clipPath>
</defs>
</svg>
