<svg width="120" height="91" viewBox="0 0 120 91" fill="none" xmlns="http://www.w3.org/2000/svg">
<path d="M33.5915 35.5233C35.9844 37.5161 38.7862 38.4283 41.6789 38.1757C44.7685 37.9091 47.6461 36.3092 49.7967 33.6989C52.5834 30.2886 53.6587 24.1838 52.5228 18.1632C51.4778 12.6338 48.7819 8.08679 45.2986 5.98168C42.0575 4.01692 35.6815 4.28357 31.668 6.54304C28.5633 8.28326 26.5793 12.1286 26.3673 16.83C26.2764 18.7667 26.3218 21.5454 27.0034 23.861C28.215 27.9449 30.7139 33.1375 33.5915 35.5373V35.5233Z" fill="#FF9259"/>
<path d="M16.4924 54.6232C18.1129 54.6232 19.3851 54.16 20.3392 53.2198C21.7174 51.8585 22.4444 49.4586 22.2929 46.8062C22.0203 42.3434 19.3851 36.3228 15.4322 33.9791C13.5088 32.8424 11.4794 32.674 9.2076 33.502C7.88998 33.9791 6.89041 34.7089 6.17859 35.7193C4.02799 38.7507 4.28546 43.7328 6.84497 48.0973C9.19246 52.1251 12.8878 54.6232 16.4924 54.6232Z" fill="#FF9259"/>
<path d="M95.5498 39.1154C94.6713 41.445 94.7319 43.508 95.7163 45.4307C96.4887 46.9183 98.8514 47.5498 100.638 47.634C107.696 47.9708 112.376 42.5397 113.875 36.9962C114.875 33.3193 114.708 27.425 110.21 26.2321C109.71 26.0918 109.226 26.0356 108.756 26.0356C105.833 26.0356 103.44 28.4776 100.532 31.8177C100.199 32.1966 99.8812 32.5615 99.5783 32.8983C97.6246 35.0876 96.2616 37.1787 95.5498 39.1013V39.1154Z" fill="#FF9259"/>
<path d="M73.0447 37.0245C75.9677 37.9788 79.2996 37.6701 82.4346 36.1263C86.5238 34.1194 90.2646 29.0111 91.976 23.1027C93.5511 17.6856 93.1724 12.507 90.9764 9.23712C88.9318 6.19174 83.0404 3.9463 78.3606 4.42345C74.7561 4.78834 71.2121 7.51094 68.8646 11.679C67.9105 13.3912 66.6686 15.9454 66.2445 18.3031C65.4873 22.4712 65.3813 28.169 66.9109 31.453C68.168 34.1896 70.2883 36.1123 73.0447 37.0105V37.0245Z" fill="#FF9259"/>
<path d="M91.0212 56.8273C84.009 51.354 74.3768 48.4771 64.275 48.4771C58.9894 48.4771 53.5826 49.263 48.3424 50.8909C44.1624 52.182 40.1944 53.9644 37.1805 55.9151C29.714 60.7428 25.3977 68.9106 26.4578 76.2504C26.9273 79.5343 28.457 82.0885 31.0013 83.8428C34.5604 86.2987 40.1035 87.1829 46.2221 86.2707C48.3424 85.9619 50.4021 85.4848 52.3861 85.0357C57.0963 83.9691 61.9578 82.8604 67.6523 83.7867C79.5412 85.7514 92.5811 87.0004 96.8217 77.1065C98.8209 72.4472 98.1545 66.3564 95.1255 61.5989C93.8533 59.606 92.3994 57.9079 91.0212 56.8413V56.8273ZM63.9267 78.1871C62.0184 78.7625 44.3441 69.4018 47.1308 62.2164C48.8119 57.5571 56.7479 54.9187 62.1093 60.42C64.9414 55.2134 74.5131 54.1187 76.2699 61.0656C78.1024 68.251 67.0465 77.5976 63.9267 78.1871Z" fill="#FF9259"/>
<path d="M94.0654 53.4872C82.1462 44.1967 63.6087 41.5443 46.8583 46.7509C43.6021 47.7614 38.8163 49.5437 34.4999 52.3364C25.6249 58.0764 20.5059 67.9282 21.7932 76.8398C22.4293 81.2746 24.6556 84.9094 28.1996 87.3654C31.6527 89.7511 36.4082 91.0002 41.6938 91.0002C43.4052 91.0002 45.1772 90.8739 46.9794 90.5932C49.2815 90.2564 51.4321 89.7652 53.5221 89.288C58.1413 88.2355 62.1245 87.3373 66.8346 88.1092C76.0428 89.6248 95.1861 92.7825 101.214 78.7344C103.773 72.77 103.001 65.36 99.1996 59.3815C98.306 57.9781 96.4583 55.3538 94.0654 53.4872ZM96.8218 77.1065C92.566 87.0145 79.5413 85.7514 67.6524 83.7867C61.9579 82.8464 57.0963 83.9551 52.3862 85.0357C50.4022 85.4848 48.3425 85.962 46.2222 86.2707C40.1036 87.1829 34.5605 86.2988 31.0014 83.8428C28.457 82.0886 26.9274 79.5344 26.4579 76.2504C25.3977 68.9106 29.7141 60.7428 37.1806 55.9151C40.1945 53.9644 44.1473 52.1821 48.3425 50.8909C53.5827 49.263 58.9895 48.4771 64.2751 48.4771C74.3768 48.4771 84.0091 51.3681 91.0212 56.8273C92.3994 57.9079 93.8534 59.592 95.1255 61.5849C98.1546 66.3424 98.8209 72.4332 96.8218 77.0925V77.1065Z" fill="#FF9259"/>
<path d="M30.4265 38.7782C33.4101 41.2622 37.0297 42.5954 40.7403 42.5954C41.1946 42.5954 41.649 42.5814 42.1185 42.5393C46.5408 42.1463 50.5846 39.957 53.5379 36.3503C57.1424 31.9436 58.5206 24.7021 57.1575 17.4184C55.8853 10.6119 52.4928 5.11057 47.8585 2.3178C42.5123 -0.924061 34.1825 0.0162177 29.23 2.80899C24.7774 5.30704 21.9453 10.4856 21.6575 16.6465C21.5515 18.892 21.6121 22.1619 22.4451 25.0108C23.793 29.5719 26.5948 35.5925 30.4265 38.7782ZM26.3828 16.829C26.5948 12.1276 28.5788 8.28225 31.6835 6.54204C35.697 4.28256 42.0579 4.01591 45.3141 5.98068C48.7975 8.08578 51.4933 12.6328 52.5383 18.1622C53.6742 24.1828 52.5989 30.2876 49.8122 33.6979C47.6616 36.3082 44.784 37.9081 41.6944 38.1747C38.8017 38.4273 35.9999 37.5151 33.607 35.5223C30.7294 33.1225 28.2305 27.9299 27.0189 23.846C26.3373 21.5304 26.3071 18.7516 26.3828 16.8149V16.829Z" fill="#FF9259"/>
<path d="M62.5793 33.1797C64.3513 37.011 67.5015 39.8459 71.4695 41.1511C73.09 41.6844 74.8014 41.951 76.5128 41.951C79.2237 41.951 81.9953 41.2914 84.6457 40.0003C89.9161 37.418 94.4748 31.3834 96.5497 24.2541C98.4882 17.5879 97.9127 11.2726 94.9897 6.93611C91.5972 1.8979 83.6158 -0.501921 77.8607 0.0875082C72.6811 0.620801 67.7589 4.19948 64.6996 9.67275C63.5789 11.6656 62.1401 14.6548 61.61 17.5739C60.7619 22.2332 60.565 28.7871 62.5793 33.1797ZM66.2596 18.3177C66.6988 15.96 67.9255 13.4198 68.8797 11.6936C71.212 7.52554 74.7559 4.80294 78.3756 4.43806C83.0403 3.9609 88.9317 6.20634 90.9914 9.25173C93.1875 12.5217 93.5661 17.7002 91.991 23.1173C90.2796 29.0257 86.5236 34.134 82.4496 36.1409C79.3146 37.6706 75.9827 37.9934 73.0597 37.0391C70.3184 36.1409 68.1981 34.2183 66.9259 31.4816C65.4114 28.1836 65.5023 22.4998 66.2596 18.3317V18.3177Z" fill="#FF9259"/>
<path d="M16.4928 58.9889C19.4007 58.9889 21.9147 58.0206 23.7624 56.2102C26.0493 53.9647 27.2307 50.4422 26.9883 46.5407C26.64 40.9271 23.4293 33.5312 17.9619 30.2893C14.7663 28.3947 11.1315 28.086 7.46637 29.4192C5.24004 30.2332 3.46807 31.5384 2.22618 33.2926C-0.8937 37.6993 -0.727105 44.3234 2.68053 50.1615C5.90643 55.6909 11.0557 58.9749 16.4777 58.9749L16.4928 58.9889ZM6.17904 35.7065C6.89086 34.696 7.89043 33.9803 9.20805 33.4891C11.4647 32.6611 13.5092 32.8295 15.4327 33.9662C19.3855 36.3099 22.0208 42.3305 22.2934 46.7933C22.46 49.4598 21.733 51.8456 20.3397 53.2069C19.3855 54.1472 18.1133 54.6103 16.4928 54.6103C12.8883 54.6103 9.20805 52.1122 6.84542 48.0845C4.30105 43.7199 4.02844 38.7378 6.17904 35.7065Z" fill="#FF9259"/>
<path d="M95.9439 30.1215C93.6267 32.7178 91.9911 35.258 91.0824 37.6718C89.8102 41.0961 89.9314 44.338 91.461 47.2992C92.8695 50.0218 96.2165 51.776 100.397 51.9866C100.699 52.0006 101.002 52.0146 101.305 52.0146C110.529 52.0146 116.541 45.1099 118.449 38.0648C120.176 31.6934 118.737 23.9606 111.498 22.0379C104.592 20.2135 99.9271 25.5465 96.8526 29.083C96.5346 29.4479 96.2317 29.7988 95.9288 30.1215H95.9439ZM100.533 31.8337C103.456 28.4936 105.834 26.0517 108.757 26.0517C109.226 26.0517 109.711 26.1078 110.211 26.2482C114.709 27.441 114.875 33.3353 113.876 37.0122C112.376 42.5557 107.681 47.9728 100.639 47.65C98.8518 47.5658 96.474 46.9343 95.7168 45.4467C94.7323 43.524 94.6718 41.461 95.5502 39.1314C96.262 37.2087 97.625 35.1177 99.5787 32.9283C99.8968 32.5775 100.215 32.2126 100.533 31.8477V31.8337Z" fill="#FF9259"/>
<path d="M62.0943 60.4341C56.733 54.9327 48.797 57.5711 47.1159 62.2304C44.3292 69.4018 62.0035 78.7765 63.9117 78.2011C67.0165 77.6258 78.0724 68.2651 76.2549 61.0796C74.4981 54.1328 64.9265 55.2275 62.0943 60.4341Z" fill="#321F15"/>
</svg>
