<?xml version="1.0" encoding="UTF-8"?>
<svg id="Layer_1" xmlns="http://www.w3.org/2000/svg" version="1.1" viewBox="0 0 446.7 123.5">
  <!-- Generator: Adobe Illustrator 29.3.0, SVG Export Plug-In . SVG Version: 2.1.0 Build 146)  -->
  <defs>
    <style>
      .st0 {
        fill: #1b4692;
      }
    </style>
  </defs>
  <path class="st0" d="M221.7,65.6v11.2h-15c9.4,7.4,15,17.6,6,28.1-14.6,17.1-60.3,16.9-75.5.6-9.7-10.4-4.3-21.6,5.9-28.8h-17.2v-11.2h95.9ZM169.8,80c-23,2.1-28.9,19.7-4.5,24.3,8.8,1.7,33.8,1,34.4-11.5.6-11.6-22-13.5-29.9-12.8h0Z"/>
  <path class="st0" d="M400.6,35.6h15v-19.5h17.2v51h-17.2v-20.2h-13.9c-8,19.3-31.9,25.2-49.8,16.2-16.1-8.1-20-27.4-5.6-39.4,16.4-13.7,47.4-9.8,54.3,12h0ZM366,27.5c-3.3.6-7.2,3.1-9.1,5.9-10.6,15.4,13.3,31.1,24.7,16.5,9-11.6-2-24.7-15.6-22.3h0Z"/>
  <path class="st0" d="M165.1,17.6c2.4-.7.2-9.6,1.6-9.8h16.1c.7.7-1.2,8.5,1.1,9.8h36.3v11.2h-12c6.9,7.4,6.1,17.2-1.5,23.6-13,11.1-39.6,11.7-54.9,5.4-13-5.3-21.4-16.2-11-29.1h-12v-11.2h36.3,0ZM167.6,29c-19.5,2.5-19.6,18.9.6,21.5,7.3,1,27.4,0,28.1-10.1.9-11.8-20.8-12.4-28.7-11.4Z"/>
  <path class="st0" d="M367.7,72.3l.7,8.7,47.2.3c.6-.6-1.2-7.8,1.1-9h16.1v38.2h-79.8c-.2,0-1.9-2.3-1.9-2.6v-35.6h16.5,0ZM415.6,92.6h-46.8c-2,1.6-.9,4.5-1.1,6.8h47.9v-6.8h0Z"/>
  <path class="st0" d="M81.6,17.6v11.2h-24.7c1.5,15.3,7.5,30.1,23.2,35.3.7,1.1-5.3,8.3-6.3,9-1.7,1.2-7.5-2.3-9.3-3.5-6.9-4.3-13-10.7-16.2-18.3-6.7,10.2-16.8,18.3-28.3,22.4l-8-8.5c15.3-7.1,26.4-18.5,26.9-36.4H14.2v-11.2h67.4Z"/>
  <path class="st0" d="M286.4,17.6c7.3,1.5,4.7,12.2,3.8,17.3-3,16.6-12.9,36.8-23.6,49.8-2.4,2.9-14.8,15.9-17.6,16.2-1.4.1-11-5.3-12.3-6.4-.7-.6-1-.8-.8-1.8,20.4-14.4,35.4-38.8,38.2-63.8h-36.7v-11.2h49Z"/>
  <rect class="st0" x="304.8" y="15.3" width="16.5" height="96"/>
  <path class="st0" d="M41.9,79.8v21h65.2v11.2H27.3c-.2,0-2.6-2.4-2.6-2.6v-29.6h17.2,0Z"/>
  <rect class="st0" x="89.9" y="15.3" width="17.2" height="67.5"/>
</svg>