<svg width="121" height="40" viewBox="0 0 121 40" fill="none" xmlns="http://www.w3.org/2000/svg">
<path d="M95.6644 9.93012C95.6644 10.2688 95.7137 10.6198 95.8492 10.9523C96.4465 12.4303 97.9675 13.3416 99.9011 12.5719C100.363 12.3872 113.153 7.23292 113.153 7.23292C113.153 7.23292 108.116 20.0046 107.925 20.4788C107.192 22.3077 108.073 23.9642 109.569 24.5184C109.902 24.6416 110.247 24.7031 110.585 24.697C111.811 24.6908 112.888 23.9703 113.418 22.5294C113.498 22.3138 119.798 5.01604 119.933 4.60346C120.013 4.35714 120.161 3.77829 120.161 3.37802C120.161 2.52206 119.847 1.71536 119.237 1.10572C118.64 0.502236 117.839 0.194336 116.996 0.194336C116.583 0.194336 116.251 0.268232 115.746 0.42834C115.444 0.526868 99.2053 6.56786 97.8197 7.08513C96.4342 7.6024 95.6644 8.71084 95.6706 9.93012" fill="white"/>
<path d="M65.2377 19.6839V19.3145H55.391V21.8331H61.1118C59.6216 26.5501 54.2949 29.3212 54.2949 29.3212L55.7174 31.3102C55.7174 31.3102 65.2377 27.3814 65.2377 19.6778V19.6839Z" fill="white"/>
<path d="M62.1281 36.4093V31.5137H58.6365V37.0312C58.6365 38.7555 60.0097 39.9994 61.8941 39.9994H72.7136V37.4869H63.3473C62.4975 37.4869 62.1404 37.1482 62.1219 36.4093H62.1281Z" fill="white"/>
<path d="M64.8436 23.9577V26.4763H69.0003V32.5481H72.4919V19.0498H69.0003V23.9577H64.8436Z" fill="white"/>
<path d="M94.9316 29.1676H98.4232V18.9453H94.9316V22.129H91.2922V24.6168H94.9316V29.1676Z" fill="white"/>
<path d="M16.6144 31.3228H3.32544V37.0312C3.32544 38.7554 4.69867 39.9994 6.58302 39.9994H17.3903V32.0987C17.3903 31.6676 17.0393 31.3228 16.6144 31.3228ZM13.8987 37.4869H8.0363C7.1865 37.4869 6.82318 37.1544 6.81086 36.4093V33.8475H13.8987V37.4869Z" fill="white"/>
<path d="M17.6242 19.3514V19.2344H3.13442V21.753H13.9725C13.9725 21.9193 13.9725 22.1286 13.9725 22.3318C13.9725 24.6719 13.8555 26.2114 13.7939 26.8395H0V29.3581H21.2512V26.8395H16.9037C17.1131 26.0513 17.6303 23.6127 17.6303 19.3514H17.6242Z" fill="white"/>
<path d="M39.325 32.5916C42.2254 31.9573 44.3684 29.7835 44.3684 27.2095C44.3684 25.8239 43.7465 24.5554 42.7242 23.5763H46.4314V21.0576H39.325V18.6807H35.8396V21.0576H28.7333V23.5763H32.4404C31.4182 24.5554 30.7962 25.8178 30.7962 27.2095C30.7962 29.7897 32.9392 31.9573 35.8458 32.5916V35.141H26.9659V37.6596H48.211V35.141H39.3312V32.5916H39.325ZM34.3802 27.1294C34.3802 25.4113 35.815 24.0073 37.5762 24.0073C39.3373 24.0073 40.7722 25.4052 40.7722 27.1294C40.7722 28.8537 39.3373 30.2515 37.5762 30.2515C35.815 30.2515 34.3802 28.8537 34.3802 27.1294Z" fill="white"/>
<path d="M88.2564 28.952H91.6371C91.4955 28.133 90.2577 21.5193 87.0371 19.2285H83.1391L80.1401 29.032H83.644L85.6392 21.975C87.3204 23.9455 88.1394 28.3054 88.2502 28.952H88.2564Z" fill="white"/>
<path d="M88.9522 37.5728C88.0655 37.5728 87.9053 37.345 87.9053 36.5937V36.2796H98.4294V30.9838C98.4294 30.5281 98.0968 30.1709 97.6227 30.1709H84.4753V32.5971H95.0856V33.8965H84.5677V37.0309C84.5677 38.8475 85.8732 39.9991 87.8253 39.9991H98.6572V37.5728H88.9522Z" fill="white"/>
</svg>
