<svg width="129" height="43" viewBox="0 0 129 43" fill="none" xmlns="http://www.w3.org/2000/svg">
<path d="M102.702 10.452C102.702 10.8156 102.755 11.1924 102.9 11.5494C103.541 13.136 105.174 14.1144 107.25 13.2881C107.746 13.0897 121.477 7.55634 121.477 7.55634C121.477 7.55634 116.069 21.2675 115.864 21.7765C115.077 23.74 116.023 25.5184 117.629 26.1133C117.986 26.2456 118.356 26.3117 118.72 26.3051C120.036 26.2985 121.193 25.525 121.761 23.978C121.847 23.7466 128.61 5.17639 128.756 4.73346C128.841 4.46902 129 3.84759 129 3.41787C129 2.49895 128.663 1.63291 128.008 0.978424C127.367 0.330549 126.508 0 125.602 0C125.159 0 124.802 0.0793317 124.26 0.251217C123.936 0.356993 106.503 6.84236 105.016 7.39768C103.528 7.953 102.702 9.14298 102.708 10.452" fill="#ED1C24"/>
<path d="M70.0365 20.9235V20.5269H59.4656V23.2307H65.6072C64.0073 28.2948 58.2888 31.2697 58.2888 31.2697L59.816 33.405C59.816 33.405 70.0365 29.1872 70.0365 20.9169V20.9235Z" fill="#454B52"/>
<path d="M66.6984 38.8793V33.6235H62.95V39.547C62.95 41.398 64.4242 42.7335 66.4472 42.7335H78.0626V40.0362H68.0073C67.095 40.0362 66.7116 39.6726 66.6918 38.8793H66.6984Z" fill="#454B52"/>
<path d="M69.6135 25.5116V28.2155H74.0759V34.7339H77.8244V20.2427H74.0759V25.5116H69.6135Z" fill="#454B52"/>
<path d="M101.915 31.1046H105.663V20.1304H101.915V23.5482H98.0078V26.2191H101.915V31.1046Z" fill="#454B52"/>
<path d="M17.8363 33.4185H3.56982V39.5468C3.56982 41.3979 5.04407 42.7333 7.06703 42.7333H18.6693V34.2514C18.6693 33.7887 18.2925 33.4185 17.8363 33.4185ZM14.9209 40.036H8.62722C7.71491 40.036 7.32486 39.6791 7.31164 38.8791V36.129H14.9209V40.036Z" fill="#454B52"/>
<path d="M18.9206 20.5665V20.4409H3.36499V23.1448H15.0003C15.0003 23.3233 15.0003 23.5481 15.0003 23.7662C15.0003 26.2784 14.8747 27.9312 14.8086 28.6055H0V31.3094H22.8145V28.6055H18.1471C18.3719 27.7593 18.9272 25.1413 18.9272 20.5665H18.9206Z" fill="#454B52"/>
<path d="M42.2177 34.7804C45.3315 34.0995 47.6321 31.7658 47.6321 29.0024C47.6321 27.5149 46.9644 26.1531 45.8669 25.1019H49.8468V22.398H42.2177V19.8462H38.4759V22.398H30.8468V25.1019H34.8266C33.7292 26.1531 33.0615 27.5083 33.0615 29.0024C33.0615 31.7724 35.3621 34.0995 38.4825 34.7804V37.5173H28.9495V40.2212H51.7573V37.5173H42.2243V34.7804H42.2177ZM36.9091 28.9164C36.9091 27.072 38.4494 25.5647 40.3402 25.5647C42.2309 25.5647 43.7713 27.0654 43.7713 28.9164C43.7713 30.7675 42.2309 32.2682 40.3402 32.2682C38.4494 32.2682 36.9091 30.7675 36.9091 28.9164Z" fill="#454B52"/>
<path d="M94.7487 30.8733H98.3781C98.226 29.994 96.8972 22.8939 93.4397 20.4346H89.2549L86.0354 30.9592H89.797L91.939 23.3831C93.7438 25.4986 94.6231 30.1791 94.7421 30.8733H94.7487Z" fill="#454B52"/>
<path d="M95.4956 40.1285C94.5437 40.1285 94.3718 39.8839 94.3718 39.0774V38.7402H105.67V33.0548C105.67 32.5656 105.313 32.1821 104.804 32.1821H90.6895V34.7869H102.08V36.1818H90.7886V39.5468C90.7886 41.497 92.1901 42.7332 94.2858 42.7332H105.915V40.1285H95.4956Z" fill="#454B52"/>
</svg>
