<svg xmlns="http://www.w3.org/2000/svg" xmlns:xlink="http://www.w3.org/1999/xlink" width="135.811" height="48.387" viewBox="0 0 135.811 48.387">
  <defs>
    <clipPath id="clip-path">
      <rect id="사각형_17" data-name="사각형 17" width="135.811" height="48.387" transform="translate(0 0)" fill="none"/>
    </clipPath>
  </defs>
  <g id="logo" transform="translate(130 -1)">
    <g id="그룹_3" data-name="그룹 3" transform="translate(-130 1)" clip-path="url(#clip-path)">
      <path id="패스_2" data-name="패스 2" d="M0,38.734s3.8,5.876,6.912,6.221,2.073,2.074,7.257,1.382,3.8-3.456,3.8-7.6S12.787,32.557,11.4,24.068s-1.037-7.106,2.765-12.982S23.847,2.1,27.3,2.1,30.759.372,35.943.027s9.33,2.764,11.4,5.184.691,3.456-1.728,2.073-3.11-4.147-7.257-4.147-7.6-.691-7.949,2.074,1.037,8.64,2.765,10.368,5.529,9.676,5.184,13.478-.346,7.949-4.147,11.06-3.8,3.111-5.53,3.111,1.728-5.184,1.728-6.222-4.839-12.938-4.839-12.938a1.952,1.952,0,0,0-1.394,2.916A64.569,64.569,0,0,0,27.3,32.858a17.912,17.912,0,0,1,0,4.493c-.346,1.728,1.037,1.382-1.382,4.147s-2.073,4.125-5.184,5S9.677,49.1,8.64,48.066s-5.184-1.382-6.911-3.111S0,38.734,0,38.734" transform="translate(0 0)" fill="#6aae27"/>
      <path id="패스_3" data-name="패스 3" d="M37.12,30.093l.033-2.588.033-4.816q.031-1.048.033-2.162v-4.39c0-.611.021-1.3.066-2.064v-.131c.022-.218.038-.443.05-.671s.016-.464.016-.705a3.42,3.42,0,0,1,.36-1.278A2.142,2.142,0,0,1,38.4,10.5a2.273,2.273,0,0,1,1.016-.262q.261,0,.476.016c.142.012.278.029.409.05a1.345,1.345,0,0,1,.753.393,1.485,1.485,0,0,1,.36.524c.043.131.081.257.115.377s.059.245.081.376c.021.153.038.295.048.426s.017.262.017.393c0,.153-.005.29-.017.409s-.016.246-.016.377v.557l-.2,17v.328a2.358,2.358,0,0,1-.016.245c-.012.1-.028.214-.05.345a2.95,2.95,0,0,0-.114.345c-.033.119-.072.245-.115.376a3.434,3.434,0,0,1-.212.312,1.806,1.806,0,0,1-.279.278,1.552,1.552,0,0,1-.852.36,2.572,2.572,0,0,1-1.671-.164,1.451,1.451,0,0,1-.557-.655.283.283,0,0,1-.1-.2.352.352,0,0,0-.066-.1.364.364,0,0,1-.066-.1,1.833,1.833,0,0,1-.1-.345,2.05,2.05,0,0,1-.033-.376,3.188,3.188,0,0,1-.048-.328c-.012-.11-.028-.219-.05-.328a2.327,2.327,0,0,1,0-.557Z" transform="translate(11.517 3.179)" fill="#362f2d"/>
      <path id="패스_4" data-name="패스 4" d="M63.292,31.214q-.033.393-.1.819a3.044,3.044,0,0,1-.229.786,1.535,1.535,0,0,1-1.278.95,1.8,1.8,0,0,1-.885.1,3.029,3.029,0,0,1-.786-.229,1.869,1.869,0,0,1-.672-.705,3.441,3.441,0,0,1-.311-.867,4.519,4.519,0,0,1-.1-.95V27.644L58.9,22.631V21.272c0-.164-.005-.35-.017-.558s-.016-.507-.016-.9c0-.066.005-.18.016-.343s-.005-.607-.048-1.327q-1.278,2.129-2.114,3.423a23.421,23.421,0,0,1-1.407,2,4.073,4.073,0,0,1-1,.949,2.056,2.056,0,0,1-.885.279.894.894,0,0,1-.524-.1,2.86,2.86,0,0,1-.508-.328,5.546,5.546,0,0,1-.459-.41,2.68,2.68,0,0,1-.343-.409q-.786-.983-1.769-2.359A30.365,30.365,0,0,1,47.8,17.848c0,.022-.007.383-.016,1.081s-.017,1.567-.017,2.6-.005,2.152-.017,3.343-.021,2.3-.033,3.325-.028,1.883-.048,2.572A6.167,6.167,0,0,1,47.6,31.8a2.1,2.1,0,0,1-.262,1.031,2.187,2.187,0,0,1-.7.771,2.037,2.037,0,0,1-1.033.328,2.486,2.486,0,0,1-1.278-.328,1.607,1.607,0,0,1-.638-.753,3.727,3.727,0,0,1-.279-.917c-.022-.307-.039-.6-.048-.885s-.017-.578-.017-.885l.033-2.555.033-5.045v-4.39q0-2.85.2-5.6a2.625,2.625,0,0,1,.083-.672A3.858,3.858,0,0,1,43.9,11.3a1.875,1.875,0,0,1,.688-.786,2,2,0,0,1,1.048-.295c.152,0,.3.005.442.016s.279.028.41.05a1.869,1.869,0,0,1,1.131.769,12.863,12.863,0,0,0,.9,1.1,7.814,7.814,0,0,1,.557.721q.295.427.59.885c.2.307.381.6.557.885s.328.535.459.753q.851,1.376,1.524,2.523t1.261,1.966a2.424,2.424,0,0,0,.229-.279c.086-.119.181-.25.278-.393s.186-.278.262-.409.136-.24.181-.328q.326-.525.655-1.033c.218-.338.453-.7.7-1.08s.514-.8.786-1.262.595-.983.967-1.572c.152-.262.349-.578.59-.95a9.311,9.311,0,0,1,.819-1.081,6.2,6.2,0,0,1,.967-.9,1.717,1.717,0,0,1,1.031-.376c.174,0,.328.005.459.016s.262.028.393.05a1.278,1.278,0,0,1,.753.36,1.885,1.885,0,0,1,.393.557,4.064,4.064,0,0,1,.164.721c.021.153.038.295.048.426s.017.262.017.393q0,1.834.033,3.636t.033,3.636q0,2.227.016,4.586t.017,4.586q0,.46.033.983a8.744,8.744,0,0,1,0,1.048" transform="translate(13.454 3.171)" fill="#362f2d"/>
      <path id="패스_5" data-name="패스 5" d="M75.276,12.4a6.963,6.963,0,0,1,1.835,2.735,7.281,7.281,0,0,1,.459,3.162,5.972,5.972,0,0,1-.95,2.769,5.054,5.054,0,0,1-2.49,1.916,11.976,11.976,0,0,1-2.588.786q-1.278.23-2.817.36c-.459.045-.847.071-1.164.083s-.683.028-1.1.048h-.442a2.115,2.115,0,0,0-.443.033v6.781c-.066.414-.148.841-.246,1.278a1.532,1.532,0,0,1-.769,1.016,2.121,2.121,0,0,1-.885.229,4.532,4.532,0,0,1-.95-.033,2.117,2.117,0,0,1-.771-.246,1.287,1.287,0,0,1-.507-.638,5.685,5.685,0,0,1-.246-.672,3.261,3.261,0,0,1-.114-.933V12.961a2.555,2.555,0,0,1,.033-.426c.021-.131.043-.262.066-.393a1.786,1.786,0,0,0,.1-.36,1.629,1.629,0,0,1,.1-.36,1.931,1.931,0,0,1,.147-.295.843.843,0,0,1,.214-.229,1.451,1.451,0,0,1,.507-.295,3.1,3.1,0,0,1,1.033-.131h.066q1.014-.065,2.26-.114a13.422,13.422,0,0,1,2.064.048c.305.045.59.071.852.083s.512.028.753.048l.786.066q.393.033.786.1.326.067.605.1t.574.1c.174.045.366.088.573.131a1.787,1.787,0,0,1,.574.229,4.322,4.322,0,0,1,1.147.491q.458.295.95.655m-1.966,5.405A2.467,2.467,0,0,0,73,16.433a2.871,2.871,0,0,0-.966-.983,5.535,5.535,0,0,0-1.409-.622,10.172,10.172,0,0,0-1.572-.328c-.131,0-.312-.005-.541-.017s-.474-.021-.736-.033l-.738-.031c-.229-.012-.409-.017-.54-.017a2.12,2.12,0,0,0-.393-.033h-.524q.031,1.016.033,1.95v2.014q-.033.59-.033,1.179v1.147l2.031-.033a17,17,0,0,0,1.736-.1,8.025,8.025,0,0,0,1.8-.393,4.1,4.1,0,0,0,1.457-.852,2.245,2.245,0,0,0,.705-1.474" transform="translate(18.964 3.21)" fill="#362f2d"/>
      <path id="패스_6" data-name="패스 6" d="M81.51,11.113a9.932,9.932,0,0,1,3.98-.721,7.158,7.158,0,0,1,3.195.9,7.8,7.8,0,0,1,2.407,2.146,12.087,12.087,0,0,1,1.622,3.014,14.5,14.5,0,0,1,.753,2.621,18.06,18.06,0,0,1,.214,5.405,14.161,14.161,0,0,1-.476,2.424,10.255,10.255,0,0,1-.459,1.376,11.136,11.136,0,0,1-.622,1.245,6.991,6.991,0,0,1-2.112,2.293,8.794,8.794,0,0,1-5,1.49,9.337,9.337,0,0,1-2.195-.294,9.167,9.167,0,0,1-2.08-.819,7.823,7.823,0,0,1-1.819-1.36,8.432,8.432,0,0,1-1.671-2.278,13.025,13.025,0,0,1-1.016-2.718,16.088,16.088,0,0,1-.459-2.867,19.277,19.277,0,0,1,0-2.752,14.158,14.158,0,0,1,.476-2.588,11.583,11.583,0,0,1,1.1-2.654,10.662,10.662,0,0,1,1.753-2.31,6.769,6.769,0,0,1,2.407-1.555m7.666,14.021a12.373,12.373,0,0,0,.328-3.473,13.125,13.125,0,0,0-.622-3.636,7.865,7.865,0,0,0-.9-1.85A3.88,3.88,0,0,0,86.7,14.946a3.388,3.388,0,0,0-1.721-.426,5.1,5.1,0,0,0-2.195.59,3.718,3.718,0,0,0-1.228.983A5.265,5.265,0,0,0,80.74,17.5a10.4,10.4,0,0,0-.705,3.276A15.993,15.993,0,0,0,80,22.564a12.062,12.062,0,0,0,.214,1.866,9.878,9.878,0,0,0,.507,1.769,5.188,5.188,0,0,0,.885,1.491,4.465,4.465,0,0,0,1.983,1.359,4.039,4.039,0,0,0,2.243.115,3.965,3.965,0,0,0,2.752-2.392,6.034,6.034,0,0,0,.59-1.638" transform="translate(23.507 3.223)" fill="#362f2d"/>
      <path id="패스_7" data-name="패스 7" d="M107.177,31.021a1.377,1.377,0,0,1,.064.474V32a1.237,1.237,0,0,1-.1.491,1.877,1.877,0,0,1-1.113,1.016,4.7,4.7,0,0,1-1.474.262c-.242.021-.491.033-.755.033a4.822,4.822,0,0,0-.786.066h-.131q-2.524.031-5.208,0a13.444,13.444,0,0,0-1.474.017,10.068,10.068,0,0,1-1.607-.033,4.239,4.239,0,0,1-1.426-.394,1.76,1.76,0,0,1-.9-1,1.854,1.854,0,0,1-.1-.312,1.394,1.394,0,0,1-.033-.311,15.15,15.15,0,0,1-.1-2.195q.033-1.081.033-2.129l.066-4.75v-4.39q0-1.179.017-2.1t.048-2.031v-.164c.022-.218.038-.436.05-.655s.017-.436.017-.655A3.136,3.136,0,0,1,92.63,11.5a1.6,1.6,0,0,1,.688-.786,1.741,1.741,0,0,1,1.016-.295c.152,0,.3.005.443.017s.279.028.409.048a1.209,1.209,0,0,1,.377.131,2.435,2.435,0,0,1,.376.262,2.742,2.742,0,0,1,.36.557,2.806,2.806,0,0,1,.164.721c.022.153.043.295.067.426a2.483,2.483,0,0,1,.031.393,1.249,1.249,0,0,0-.066.393v.95l-.13,15.43,6.485.066h1.541q.195,0,.425.016c.152.012.307.028.459.05.176.022.328.045.459.066a2.653,2.653,0,0,1,.393.1,1.31,1.31,0,0,1,.59.328,1.523,1.523,0,0,1,.46.655" transform="translate(28.569 3.233)" fill="#362f2d"/>
    </g>
  </g>
</svg>
