<svg width="215" height="35" viewBox="0 0 215 35" fill="none" xmlns="http://www.w3.org/2000/svg">
<path d="M12.9199 13.6628C13.8403 14.4293 14.9179 14.7802 16.0305 14.683C17.2188 14.5804 18.3256 13.9651 19.1527 12.9611C20.2245 11.6495 20.6381 9.30146 20.2012 6.98584C19.7993 4.85913 18.7625 3.11027 17.4227 2.30061C16.1761 1.54493 13.7238 1.64749 12.1802 2.51652C10.986 3.18584 10.2229 4.66482 10.1414 6.47305C10.1064 7.21794 10.1239 8.28669 10.386 9.17731C10.852 10.7481 11.8132 12.7452 12.9199 13.6682V13.6628Z" fill="#FF9259"/>
<path d="M6.34318 21.0089C6.96646 21.0089 7.45577 20.8307 7.82274 20.4691C8.35282 19.9455 8.63243 19.0225 8.57418 18.0023C8.46932 16.2859 7.45577 13.9702 5.93543 13.0688C5.19565 12.6316 4.41509 12.5668 3.54134 12.8853C3.03456 13.0688 2.6501 13.3495 2.37633 13.7381C1.54917 14.904 1.6482 16.8202 2.63263 18.4989C3.53551 20.0481 4.95682 21.0089 6.34318 21.0089Z" fill="#FF9259"/>
<path d="M36.7501 15.0444C36.4122 15.9404 36.4355 16.7338 36.8142 17.4733C37.1112 18.0455 38.02 18.2884 38.7073 18.3208C41.4218 18.4503 43.2217 16.3614 43.7984 14.2293C44.1828 12.8151 44.1188 10.548 42.3887 10.0892C42.1965 10.0353 42.0101 10.0137 41.8295 10.0137C40.7053 10.0137 39.7849 10.9529 38.6665 12.2375C38.5384 12.3833 38.4161 12.5236 38.2996 12.6532C37.5481 13.4952 37.0239 14.2995 36.7501 15.039V15.0444Z" fill="#FF9259"/>
<path d="M28.0942 14.2403C29.2184 14.6074 30.4999 14.4886 31.7057 13.8949C33.2784 13.123 34.7172 11.1582 35.3755 8.88577C35.9813 6.80225 35.8356 4.81049 34.991 3.55282C34.2046 2.38152 31.9387 1.51788 30.1387 1.7014C28.7524 1.84174 27.3893 2.8889 26.4864 4.49203C26.1195 5.15055 25.6418 6.13294 25.4787 7.03975C25.1875 8.64288 25.1467 10.8344 25.735 12.0974C26.2185 13.15 27.034 13.8895 28.0942 14.2349V14.2403Z" fill="#FF9259"/>
<path d="M35.0083 21.8567C32.3113 19.7516 28.6066 18.645 24.7213 18.645C22.6883 18.645 20.6088 18.9473 18.5933 19.5734C16.9856 20.07 15.4595 20.7555 14.3003 21.5058C11.4285 23.3626 9.76839 26.5041 10.1761 29.3271C10.3567 30.5902 10.945 31.5726 11.9237 32.2473C13.2925 33.1919 15.4245 33.5319 17.7778 33.1811C18.5933 33.0623 19.3855 32.8788 20.1486 32.7061C21.9602 32.2959 23.83 31.8694 26.0203 32.2257C30.5929 32.9814 35.6083 33.4618 37.2393 29.6564C38.0082 27.8643 37.7519 25.5217 36.5869 23.6919C36.0976 22.9254 35.5384 22.2723 35.0083 21.8621V21.8567ZM24.5873 30.072C23.8533 30.2933 17.0555 26.693 18.1273 23.9294C18.7739 22.1373 21.8262 21.1226 23.8883 23.2385C24.9776 21.2359 28.659 20.8149 29.3347 23.4868C30.0395 26.2504 25.7873 29.8453 24.5873 30.072Z" fill="#FF9259"/>
<path d="M36.1792 20.572C31.5949 16.9987 24.465 15.9785 18.0225 17.981C16.7702 18.3697 14.9294 19.0552 13.2693 20.1293C9.85582 22.337 7.88696 26.1262 8.38208 29.5538C8.62674 31.2594 9.48302 32.6575 10.8461 33.6021C12.1742 34.5197 14.0033 35.0001 16.0362 35.0001C16.6944 35.0001 17.376 34.9515 18.0691 34.8435C18.9545 34.714 19.7817 34.5251 20.5856 34.3415C22.3622 33.9367 23.8942 33.5913 25.7058 33.8881C29.2474 34.4711 36.6103 35.6856 38.9286 30.2825C39.9131 27.9884 39.616 25.1384 38.1539 22.839C37.8102 22.2992 37.0996 21.2899 36.1792 20.572ZM37.2394 29.6563C35.6025 33.4671 30.593 32.9813 26.0203 32.2256C23.8301 31.864 21.9603 32.2904 20.1487 32.706C19.3856 32.8788 18.5934 33.0623 17.7779 33.181C15.4246 33.5319 13.2926 33.1918 11.9237 32.2472C10.9451 31.5725 10.3568 30.5901 10.1762 29.3271C9.76844 26.5041 11.4286 23.3626 14.3003 21.5058C15.4595 20.7555 16.9799 20.07 18.5934 19.5734C20.6089 18.9472 22.6884 18.645 24.7213 18.645C28.6066 18.645 32.3114 19.7569 35.0084 21.8566C35.5384 22.2722 36.0977 22.92 36.587 23.6864C37.752 25.5163 38.0083 27.8589 37.2394 29.6509V29.6563Z" fill="#FF9259"/>
<path d="M11.7025 14.9148C12.8501 15.8702 14.2423 16.383 15.6694 16.383C15.8441 16.383 16.0189 16.3776 16.1995 16.3614C17.9004 16.2102 19.4557 15.3682 20.5916 13.981C21.9779 12.2861 22.508 9.50087 21.9837 6.69945C21.4944 4.08156 20.1896 1.96565 18.4072 0.891501C16.3509 -0.355373 13.1471 0.0062747 11.2424 1.08042C9.52979 2.04122 8.44051 4.03298 8.32984 6.40258C8.28906 7.26621 8.31236 8.52388 8.63274 9.61962C9.15117 11.3739 10.2288 13.6895 11.7025 14.9148ZM10.1472 6.47275C10.2288 4.66451 10.9919 3.18553 12.186 2.51622C13.7297 1.64718 16.1762 1.54463 17.4286 2.30031C18.7683 3.10997 19.8052 4.85883 20.2071 6.98553C20.644 9.30116 20.2304 11.6492 19.1586 12.9608C18.3314 13.9648 17.2247 14.5801 16.0364 14.6827C14.9238 14.7798 13.8462 14.429 12.9258 13.6625C11.819 12.7395 10.8579 10.7423 10.3919 9.17161C10.1298 8.28099 10.1181 7.21224 10.1472 6.46735V6.47275Z" fill="#FF9259"/>
<path d="M24.0691 12.7615C24.7507 14.2351 25.9623 15.3254 27.4884 15.8274C28.1117 16.0325 28.7699 16.1351 29.4282 16.1351C30.4708 16.1351 31.5368 15.8814 32.5562 15.3848C34.5833 14.3916 36.3367 12.0706 37.1347 9.32854C37.8803 6.76462 37.6589 4.33564 36.5347 2.66775C35.2299 0.729964 32.1601 -0.193047 29.9466 0.0336572C27.9544 0.238771 26.0613 1.61519 24.8846 3.7203C24.4536 4.48678 23.9002 5.6365 23.6963 6.75922C23.3701 8.55127 23.2944 11.072 24.0691 12.7615ZM25.4846 7.0453C25.6535 6.13848 26.1254 5.1615 26.4923 4.49758C27.3894 2.89445 28.7525 1.84729 30.1446 1.70695C31.9388 1.52343 34.2047 2.38707 34.9969 3.55837C35.8415 4.81604 35.9872 6.8078 35.3814 8.89132C34.7231 11.1638 33.2785 13.1285 31.7116 13.9004C30.5058 14.4888 29.2243 14.6129 28.1001 14.2459C27.0457 13.9004 26.2302 13.1609 25.7409 12.1084C25.1584 10.8399 25.1934 8.65382 25.4846 7.0507V7.0453Z" fill="#FF9259"/>
<path d="M6.34342 22.6882C7.46183 22.6882 8.42879 22.3158 9.13944 21.6195C10.019 20.7558 10.4734 19.401 10.3802 17.9004C10.2462 15.7413 9.01129 12.8967 6.90845 11.6499C5.67936 10.9212 4.28135 10.8024 2.87169 11.3152C2.01541 11.6283 1.33388 12.1303 0.856227 12.805C-0.343732 14.4999 -0.279657 17.0476 1.03098 19.293C2.27171 21.4197 4.25223 22.6828 6.33759 22.6828L6.34342 22.6882ZM2.37656 13.7334C2.65034 13.3447 3.03479 13.0695 3.54157 12.8805C4.4095 12.5621 5.19589 12.6268 5.93567 13.0641C7.456 13.9655 8.46956 16.2811 8.57441 17.9976C8.63849 19.0231 8.35888 19.9408 7.82298 20.4643C7.456 20.826 6.9667 21.0041 6.34342 21.0041C4.95706 21.0041 3.54157 20.0433 2.63287 18.4942C1.65426 16.8155 1.54941 14.8993 2.37656 13.7334Z" fill="#FF9259"/>
<path d="M36.9016 11.5854C36.0104 12.584 35.3813 13.5609 35.0318 14.4893C34.5425 15.8064 34.5891 17.0533 35.1774 18.1922C35.7191 19.2393 37.0065 19.9141 38.6142 19.995C38.7307 20.0004 38.8472 20.0058 38.9637 20.0058C42.5111 20.0058 44.8237 17.3501 45.5576 14.6405C46.2217 12.1899 45.6683 9.21577 42.8839 8.47628C40.2277 7.77458 38.4336 9.82571 37.2511 11.1859C37.1288 11.3263 37.0123 11.4612 36.8958 11.5854H36.9016ZM38.6666 12.2439C39.7908 10.9592 40.7054 10.02 41.8296 10.02C42.0102 10.02 42.1966 10.0416 42.3888 10.0956C44.1189 10.5544 44.1829 12.8215 43.7985 14.2357C43.2218 16.3678 41.416 18.4513 38.7074 18.3271C38.02 18.2947 37.1055 18.0518 36.8142 17.4797C36.4356 16.7402 36.4123 15.9467 36.7502 15.0507C37.0239 14.3112 37.5482 13.507 38.2996 12.6649C38.422 12.53 38.5443 12.3896 38.6666 12.2493V12.2439Z" fill="#FF9259"/>
<path d="M23.8826 23.2441C21.8206 21.1282 18.7682 22.143 18.1217 23.935C17.0499 26.6933 23.8477 30.2989 24.5816 30.0776C25.7758 29.8563 30.0281 26.256 29.329 23.4924C28.6533 20.8205 24.9719 21.2416 23.8826 23.2441Z" fill="#321F15"/>
<path d="M55.5476 25.981C55.5476 29.0846 58.9261 31.2437 63.7318 31.2437C68.5375 31.2437 71.916 29.0846 71.916 25.981C71.916 22.8773 68.5375 20.6372 63.7318 20.6372C58.9261 20.6372 55.5476 22.8233 55.5476 25.981ZM68.019 25.981C68.019 27.3574 66.3298 28.221 63.7667 28.221C61.2037 28.221 59.4562 27.3574 59.4562 25.981C59.4562 24.6045 61.1746 23.6599 63.7667 23.6599C66.3589 23.6599 68.019 24.5775 68.019 25.981Z" fill="white"/>
<path d="M75.2126 19.18C76.2612 19.18 76.7854 18.3973 76.7854 17.6416C76.7854 16.886 76.2612 16.1033 75.2126 16.1033H65.6887V14.2951C67.8731 14.2141 70.2031 13.9172 72.2127 13.4314C73.0283 13.2155 73.6108 12.6487 73.6108 11.9201C73.6108 11.0024 72.7953 10.4357 71.8632 10.4357C71.7176 10.4357 71.4264 10.4897 71.2807 10.5166C68.8342 11.1104 66.0673 11.3263 63.7373 11.3263C61.582 11.3263 59.718 11.2183 58.3491 10.8945C58.2035 10.8675 58.1161 10.7865 58.1161 10.5976V8.38454H71.3099C72.3875 8.38454 72.9409 7.79079 72.9409 6.90017C72.9409 6.00954 72.3584 5.36182 71.3099 5.36182H56.456C55.2036 5.36182 54.2716 6.00954 54.2716 7.0621V11.0024C54.2716 12.4058 54.7667 13.1615 56.2813 13.6203C57.5045 13.9982 59.6598 14.2141 61.7859 14.2951V16.1033H52.262C51.2135 16.1033 50.6892 16.859 50.6892 17.6416C50.6892 18.4243 51.2135 19.18 52.262 19.18H75.2126Z" fill="white"/>
<path d="M83.6535 13.1067C84.702 13.5115 87.9641 13.9163 91.6921 13.9163C95.4201 13.9163 98.6821 13.5115 99.7889 13.0797C100.837 12.6748 101.187 12.0541 101.187 10.7856V6.8453C101.187 5.79275 100.255 5.14502 99.0025 5.14502H84.3817C83.1293 5.14502 82.1973 5.79275 82.1973 6.8453V10.7856C82.1973 12.0541 82.5468 12.6748 83.6535 13.1067ZM86.0418 8.11377H97.3424V10.3268C97.3424 10.4618 97.255 10.5697 97.1094 10.5967C96.4104 10.7317 94.1095 10.9476 91.6921 10.9476C89.2747 10.9476 86.9738 10.7317 86.2748 10.5967C86.1292 10.5697 86.0418 10.4618 86.0418 10.3268V8.11377Z" fill="white"/>
<path d="M89.7408 18.3702V19.9625H83.4497C82.3429 19.9625 81.7896 20.6912 81.7896 21.4469C81.7896 22.2025 82.3429 22.9312 83.4497 22.9312H97.0803V24.1727H84.2943C83.042 24.1727 82.1099 24.8204 82.1099 25.873V29.3815C82.1099 30.4341 83.042 31.0818 84.2943 31.0818H100.284C101.391 31.0818 101.944 30.3261 101.944 29.5974C101.944 28.8687 101.391 28.1131 100.284 28.1131H86.0127V26.7636H98.9734C100.109 26.7636 100.983 26.1699 100.983 25.1443V21.6628C100.983 20.6102 100.051 19.9625 98.7987 19.9625H93.6435V18.3702H103.167C104.216 18.3702 104.74 17.5875 104.74 16.8318C104.74 16.0761 104.216 15.2935 103.167 15.2935H80.2168C79.1683 15.2935 78.644 16.0491 78.644 16.8318C78.644 17.6145 79.1683 18.3702 80.2168 18.3702H89.7408Z" fill="white"/>
<path d="M119.652 28.1124C123.875 28.1124 127.836 27.7076 131.302 26.8169C132.292 26.574 132.7 25.9263 132.7 25.2786C132.7 24.4959 132.059 23.7402 131.04 23.7402C130.894 23.7402 130.691 23.7402 130.516 23.7942C127.72 24.4689 124.778 24.8468 121.603 24.9547V19.7459C124.487 19.638 126.846 19.2331 127.749 18.8283C128.797 18.3695 129.147 17.8027 129.147 16.5343V7.46609C129.147 6.44052 128.215 5.92773 127.225 5.92773C126.234 5.92773 125.302 6.44052 125.302 7.46609V10.03H114.002V7.46609C114.002 6.44052 113.07 5.92773 112.08 5.92773C111.089 5.92773 110.157 6.44052 110.157 7.46609V16.5343C110.157 17.8027 110.507 18.3695 111.614 18.8553C112.487 19.2331 114.817 19.638 117.701 19.7459V24.9547C114.555 24.8468 111.555 24.4689 108.788 23.7942C108.614 23.7402 108.41 23.7132 108.264 23.7132C107.245 23.7132 106.604 24.4959 106.604 25.2786C106.604 25.9263 107.012 26.574 108.002 26.8169C111.468 27.7076 115.429 28.1124 119.652 28.1124ZM114.235 16.2374C114.089 16.2104 114.002 16.1564 114.002 16.0215V13.0257H125.302V15.9675C125.302 16.1024 125.215 16.2104 125.069 16.2374C124.37 16.4263 122.069 16.7232 119.652 16.7232C117.235 16.7232 114.934 16.4263 114.235 16.2374Z" fill="white"/>
<path d="M138.089 10.2467C140.535 10.7055 144.38 10.8674 147.613 10.8674C150.845 10.8674 154.69 10.7055 157.136 10.2467C158.01 10.0577 158.68 9.51798 158.68 8.73531C158.68 7.84468 157.981 7.16997 156.962 7.16997C156.845 7.16997 156.7 7.16997 156.583 7.19695C154.603 7.54781 152.01 7.70974 149.564 7.76372V6.33332C149.564 5.28076 148.515 4.68701 147.613 4.68701C146.71 4.68701 145.661 5.25377 145.661 6.33332V7.76372C143.215 7.70974 140.622 7.54781 138.642 7.19695C138.525 7.16997 138.38 7.16997 138.263 7.16997C137.244 7.16997 136.545 7.84468 136.545 8.73531C136.545 9.51798 137.215 10.0577 138.089 10.2467Z" fill="white"/>
<path d="M147.613 28.4367C151.836 28.4367 155.797 28.0319 159.263 27.1412C160.253 26.8983 160.661 26.2506 160.661 25.6029C160.661 24.8202 160.02 24.0645 159.001 24.0645C158.855 24.0645 158.651 24.0645 158.476 24.1185C155.68 24.7932 152.739 25.1711 149.564 25.279V22.3103C153.554 21.8245 156.117 19.8003 156.117 17.0475C156.117 13.8628 152.68 11.6768 147.613 11.6768C142.545 11.6768 139.108 13.8628 139.108 17.0475C139.108 19.8003 141.671 21.8245 145.661 22.3103V25.279C142.516 25.1711 139.516 24.7932 136.749 24.1185C136.574 24.0645 136.37 24.0375 136.225 24.0375C135.205 24.0375 134.564 24.8202 134.564 25.6029C134.564 26.2506 134.972 26.8983 135.962 27.1412C139.428 28.0319 143.389 28.4367 147.613 28.4367ZM143.011 17.0475C143.011 15.5361 144.787 14.6455 147.613 14.6455C150.438 14.6455 152.214 15.5361 152.214 17.0475C152.214 18.5589 150.438 19.3955 147.613 19.3955C144.787 19.3955 143.011 18.5049 143.011 17.0475Z" fill="white"/>
<path d="M185.475 23.3634C186.32 23.3634 187.398 22.8776 187.398 21.7171V5.98273C187.398 4.82222 186.32 4.33643 185.475 4.33643C184.689 4.33643 183.553 4.82222 183.553 5.98273V21.7171C183.553 22.8776 184.689 23.3634 185.475 23.3634Z" fill="white"/>
<path d="M175.456 12.459H177.524V20.8525C177.524 22.013 178.66 22.4988 179.446 22.4988C180.291 22.4988 181.369 22.013 181.369 20.8525V6.27863C181.369 5.11812 180.291 4.63232 179.446 4.63232C178.66 4.63232 177.524 5.11812 177.524 6.27863V9.32835H175.456C174.408 9.32835 173.825 9.97607 173.825 10.8937C173.825 11.8113 174.408 12.459 175.456 12.459Z" fill="white"/>
<path d="M186.145 27.5189H172.311C172.048 27.5189 171.874 27.357 171.874 27.1141V22.3641C171.874 21.2036 170.738 20.7178 169.922 20.7178C169.107 20.7178 167.971 21.2036 167.971 22.3641V28.4635C167.971 29.705 169.049 30.6496 170.476 30.6496H186.145C187.194 30.6496 187.776 30.0019 187.776 29.0842C187.776 28.1666 187.194 27.5189 186.145 27.5189Z" fill="white"/>
<path d="M166.107 18.4236C167.243 17.6679 168.874 15.5088 169.544 13.9165C170.214 15.5088 171.845 17.6679 172.981 18.4236C173.505 18.7745 173.942 18.9094 174.408 18.9094C175.456 18.9094 176.184 18.1537 176.184 17.425C176.184 16.8313 175.806 16.3185 175.252 15.9137C173.709 14.7262 172.719 13.1878 172.02 11.4875C171.524 10.273 171.437 8.97758 171.437 7.979V7.25031C171.437 6.11679 170.389 5.604 169.544 5.604C168.699 5.604 167.651 6.11679 167.651 7.25031V7.979C167.651 8.97758 167.563 10.273 167.068 11.4875C166.369 13.1878 165.379 14.7262 163.835 15.9137C163.282 16.3185 162.903 16.8313 162.903 17.425C162.903 18.1537 163.631 18.9094 164.68 18.9094C165.146 18.9094 165.583 18.7745 166.107 18.4236Z" fill="white"/>
<path d="M207.785 16.0495H210.581V29.5438C210.581 30.7043 211.717 31.1901 212.532 31.1901C213.348 31.1901 214.484 30.7043 214.484 29.5438V5.98273C214.484 4.82222 213.348 4.33643 212.532 4.33643C211.717 4.33643 210.581 4.82222 210.581 5.98273V12.9188H207.785C206.736 12.9188 206.3 13.5665 206.3 14.4841C206.3 15.4018 206.736 16.0495 207.785 16.0495Z" fill="white"/>
<path d="M199.601 24.1721C201.64 24.1721 203.97 24.0102 206.183 23.3625C207.145 23.0656 207.552 22.5528 207.552 21.8511C207.552 20.9605 206.882 20.3128 205.863 20.3128C205.659 20.3128 205.455 20.3397 205.222 20.3937C203.213 20.9335 201.349 21.0954 199.601 21.0954C198.582 21.0954 197.184 20.9875 196.31 20.8255C196.164 20.7986 196.048 20.7176 196.048 20.5287V16.0486H203.62C204.902 16.0486 205.368 15.2929 205.368 14.5372C205.368 13.7815 204.902 13.0258 203.62 13.0258H196.048V9.11248H204.581C205.863 9.11248 206.329 8.32981 206.329 7.54714C206.329 6.76447 205.863 6.00879 204.581 6.00879H194.329C193.077 6.00879 192.145 6.65652 192.145 7.70907V20.9605C192.145 22.202 192.64 23.1466 194.242 23.5514C195.99 24.0372 198.057 24.1721 199.601 24.1721Z" fill="white"/>
</svg>
