<svg width="215" height="35" viewBox="0 0 215 35" fill="none" xmlns="http://www.w3.org/2000/svg">
<path d="M12.9194 13.6627C13.8397 14.4292 14.9173 14.7801 16.0299 14.6829C17.2182 14.5803 18.3249 13.965 19.1521 12.961C20.2239 11.6494 20.6374 9.30141 20.2006 6.9858C19.7986 4.85911 18.7618 3.11026 17.4221 2.30061C16.1755 1.54493 13.7232 1.64749 12.1796 2.51652C10.9855 3.18583 10.2225 4.6648 10.1409 6.47302C10.106 7.2179 10.1234 8.28664 10.3855 9.17726C10.8515 10.748 11.8127 12.7451 12.9194 13.6681V13.6627Z" fill="#FF9259"/>
<path d="M6.34334 21.0093C6.96661 21.0093 7.45591 20.8312 7.82288 20.4695C8.35295 19.946 8.63254 19.023 8.57429 18.0028C8.46945 16.2863 7.45591 13.9707 5.9356 13.0693C5.19583 12.6321 4.41529 12.5673 3.54155 12.8858C3.03478 13.0693 2.65033 13.35 2.37656 13.7386C1.54942 14.9045 1.64844 16.8207 2.63286 18.4994C3.53572 20.0485 4.95701 21.0093 6.34334 21.0093Z" fill="#FF9259"/>
<path d="M36.7494 15.0443C36.4115 15.9403 36.4348 16.7338 36.8134 17.4733C37.1105 18.0454 38.0192 18.2883 38.7065 18.3207C41.421 18.4503 43.2209 16.3614 43.7975 14.2293C44.182 12.8151 44.1179 10.548 42.3879 10.0892C42.1957 10.0353 42.0093 10.0137 41.8287 10.0137C40.7045 10.0137 39.7841 10.9529 38.6658 12.2375C38.5376 12.3833 38.4153 12.5236 38.2988 12.6531C37.5474 13.4952 37.0231 14.2994 36.7494 15.0389V15.0443Z" fill="#FF9259"/>
<path d="M28.0936 14.2407C29.2178 14.6078 30.4993 14.489 31.7051 13.8953C33.2778 13.1234 34.7166 11.1586 35.3748 8.88621C35.9806 6.80271 35.835 4.81096 34.9903 3.5533C34.204 2.382 31.9381 1.51837 30.1382 1.70189C28.7518 1.84223 27.3888 2.88938 26.4859 4.4925C26.119 5.15101 25.6413 6.13339 25.4782 7.0402C25.187 8.64332 25.1462 10.8348 25.7345 12.0978C26.218 13.1504 27.0335 13.8899 28.0936 14.2353V14.2407Z" fill="#FF9259"/>
<path d="M35.0081 21.8566C32.3111 19.7515 28.6065 18.645 24.7212 18.645C22.6883 18.645 20.6088 18.9473 18.5934 19.5734C16.9857 20.07 15.4596 20.7555 14.3004 21.5058C11.4287 23.3626 9.76864 26.5041 10.1764 29.327C10.357 30.5901 10.9453 31.5725 11.9239 32.2472C13.2927 33.1918 15.4247 33.5318 17.7779 33.181C18.5934 33.0622 19.3856 32.8787 20.1487 32.706C21.9602 32.2958 23.83 31.8694 26.0202 32.2256C30.5928 32.9813 35.6081 33.4617 37.239 29.6563C38.0079 27.8643 37.7516 25.5217 36.5866 23.6919C36.0974 22.9254 35.5382 22.2723 35.0081 21.862V21.8566ZM24.5873 30.0719C23.8533 30.2932 17.0556 26.693 18.1274 23.9294C18.774 22.1373 21.8263 21.1226 23.8883 23.2385C24.9775 21.2359 28.6589 20.8149 29.3346 23.4867C30.0394 26.2504 25.7872 29.8452 24.5873 30.0719Z" fill="#FF9259"/>
<path d="M36.1784 20.5719C31.5942 16.9987 24.4645 15.9785 18.0221 17.981C16.7697 18.3697 14.9291 19.0552 13.269 20.1293C9.85555 22.337 7.88672 26.1261 8.38184 29.5537C8.62649 31.2593 9.48275 32.6574 10.8458 33.6019C12.1739 34.5196 14.0029 34.9999 16.0358 34.9999C16.694 34.9999 17.3755 34.9514 18.0687 34.8434C18.9541 34.7139 19.7812 34.525 20.5851 34.3414C22.3617 33.9366 23.8936 33.5912 25.7052 33.888C29.2468 34.471 36.6095 35.6855 38.9278 30.2824C39.9122 27.9883 39.6152 25.1384 38.1531 22.839C37.8094 22.2992 37.0988 21.2898 36.1784 20.5719ZM37.2386 29.6562C35.6018 33.467 30.5923 32.9812 26.0197 32.2255C23.8296 31.8639 21.9598 32.2903 20.1482 32.7059C19.3851 32.8787 18.593 33.0622 17.7775 33.1809C15.4242 33.5318 13.2923 33.1917 11.9234 32.2471C10.9448 31.5724 10.3565 30.59 10.1759 29.327C9.76817 26.504 11.4283 23.3625 14.3 21.5057C15.4591 20.7554 16.9794 20.0699 18.593 19.5734C20.6084 18.9472 22.6879 18.645 24.7208 18.645C28.606 18.645 32.3107 19.7569 35.0076 21.8566C35.5377 22.2722 36.0969 22.9199 36.5862 23.6864C37.7512 25.5162 38.0075 27.8588 37.2386 29.6508V29.6562Z" fill="#FF9259"/>
<path d="M11.7022 14.9152C12.8497 15.8706 14.2419 16.3833 15.669 16.3833C15.8438 16.3833 16.0185 16.378 16.1991 16.3618C17.9 16.2106 19.4552 15.3686 20.5911 13.9814C21.9774 12.2865 22.5075 9.5013 21.9832 6.6999C21.4939 4.08202 20.1892 1.96612 18.4067 0.891984C16.3505 -0.354881 13.1468 0.00676364 11.2421 1.0809C9.52953 2.04169 8.44026 4.03344 8.32959 6.40302C8.28882 7.26665 8.31212 8.52431 8.63249 9.62005C9.15091 11.3743 10.2285 13.6899 11.7022 14.9152ZM10.147 6.47319C10.2285 4.66497 10.9916 3.186 12.1857 2.51669C13.7293 1.64766 16.1758 1.5451 17.4281 2.30078C18.7679 3.11043 19.8047 4.85928 20.2066 6.98597C20.6435 9.30158 20.2299 11.6496 19.1582 12.9612C18.331 13.9652 17.2243 14.5805 16.036 14.6831C14.9234 14.7802 13.8458 14.4294 12.9255 13.6629C11.8187 12.7399 10.8576 10.7428 10.3916 9.17204C10.1295 8.28142 10.1178 7.21268 10.147 6.4678V6.47319Z" fill="#FF9259"/>
<path d="M24.0684 12.7614C24.7499 14.235 25.9615 15.3253 27.4876 15.8273C28.1109 16.0324 28.7691 16.135 29.4273 16.135C30.47 16.135 31.5359 15.8813 32.5553 15.3847C34.5824 14.3915 36.3357 12.0705 37.1337 9.32847C37.8793 6.76457 37.658 4.33561 36.5337 2.66773C35.229 0.729959 32.1592 -0.193046 29.9457 0.0336569C27.9536 0.238769 26.0605 1.61518 24.8839 3.72028C24.4528 4.48675 23.8995 5.63646 23.6956 6.75918C23.3694 8.55121 23.2937 11.0719 24.0684 12.7614ZM25.4838 7.04525C25.6528 6.13844 26.1246 5.16146 26.4916 4.49754C27.3886 2.89443 28.7516 1.84728 30.1438 1.70694C31.9379 1.52342 34.2038 2.38705 34.996 3.55835C35.8406 4.81601 35.9862 6.80775 35.3804 8.89126C34.7222 11.1637 33.2776 13.1284 31.7107 13.9003C30.5049 14.4887 29.2234 14.6128 28.0992 14.2458C27.0449 13.9003 26.2294 13.1608 25.7401 12.1083C25.1576 10.8398 25.1926 8.65376 25.4838 7.05065V7.04525Z" fill="#FF9259"/>
<path d="M6.3433 22.6881C7.46169 22.6881 8.42863 22.3157 9.13927 21.6194C10.0188 20.7558 10.4732 19.4009 10.38 17.9004C10.246 15.7413 9.01112 12.8967 6.90832 11.6499C5.67926 10.9212 4.28127 10.8024 2.87164 11.3152C2.01537 11.6283 1.33386 12.1302 0.856211 12.805C-0.343726 14.4998 -0.279652 17.0475 1.03096 19.293C2.27167 21.4197 4.25215 22.6827 6.33748 22.6827L6.3433 22.6881ZM2.37652 13.7334C2.65029 13.3447 3.03474 13.0694 3.54151 12.8805C4.40942 12.5621 5.19579 12.6268 5.93556 13.064C7.45586 13.9655 8.4694 16.2811 8.57425 17.9975C8.63833 19.0231 8.35873 19.9407 7.82284 20.4643C7.45586 20.8259 6.96657 21.004 6.3433 21.004C4.95697 21.004 3.54151 20.0433 2.63282 18.4941C1.65423 16.8154 1.54938 14.8993 2.37652 13.7334Z" fill="#FF9259"/>
<path d="M36.9011 11.5849C36.0099 12.5834 35.3808 13.5604 35.0313 14.4888C34.542 15.8059 34.5886 17.0527 35.1769 18.1916C35.7186 19.2388 37.0059 19.9135 38.6136 19.9945C38.7301 19.9999 38.8466 20.0053 38.9631 20.0053C42.5105 20.0053 44.823 17.3496 45.5569 14.64C46.221 12.1894 45.6676 9.21528 42.8833 8.47579C40.2271 7.7741 38.433 9.82522 37.2506 11.1854C37.1283 11.3258 37.0118 11.4607 36.8953 11.5849H36.9011ZM38.666 12.2434C39.7903 10.9587 40.7048 10.0195 41.829 10.0195C42.0096 10.0195 42.196 10.0411 42.3882 10.0951C44.1182 10.5539 44.1823 12.8209 43.7978 14.2351C43.2211 16.3672 41.4154 18.4507 38.7068 18.3266C38.0195 18.2942 37.105 18.0513 36.8137 17.4791C36.4351 16.7397 36.4118 15.9462 36.7496 15.0502C37.0234 14.3107 37.5477 13.5064 38.2991 12.6644C38.4214 12.5295 38.5437 12.3891 38.666 12.2488V12.2434Z" fill="#FF9259"/>
<path d="M23.882 23.2436C21.82 21.1277 18.7677 22.1425 18.1212 23.9345C17.0494 26.6927 23.8471 30.2984 24.581 30.0771C25.7751 29.8558 30.0273 26.2555 29.3283 23.4919C28.6527 20.82 24.9713 21.2411 23.882 23.2436Z" fill="#321F15"/>
<path d="M55.5464 25.9804C55.5464 29.0841 58.9249 31.2432 63.7304 31.2432C68.536 31.2432 71.9145 29.0841 71.9145 25.9804C71.9145 22.8768 68.536 20.6367 63.7304 20.6367C58.9249 20.6367 55.5464 22.8228 55.5464 25.9804ZM68.0176 25.9804C68.0176 27.3568 66.3283 28.2205 63.7654 28.2205C61.2024 28.2205 59.4549 27.3568 59.4549 25.9804C59.4549 24.604 61.1733 23.6594 63.7654 23.6594C66.3575 23.6594 68.0176 24.577 68.0176 25.9804Z" fill="black"/>
<path d="M75.2115 19.1794C76.2599 19.1794 76.7842 18.3967 76.7842 17.6411C76.7842 16.8854 76.2599 16.1027 75.2115 16.1027H65.6877V14.2945C67.872 14.2135 70.202 13.9167 72.2116 13.4309C73.0271 13.215 73.6096 12.6482 73.6096 11.9195C73.6096 11.0019 72.7941 10.4352 71.8621 10.4352C71.7165 10.4352 71.4253 10.4891 71.2796 10.5161C68.8332 11.1099 66.0663 11.3258 63.7363 11.3258C61.5811 11.3258 59.7171 11.2178 58.3483 10.894C58.2026 10.867 58.1153 10.786 58.1153 10.5971V8.38403H71.3088C72.3864 8.38403 72.9397 7.79029 72.9397 6.89967C72.9397 6.00905 72.3572 5.36133 71.3088 5.36133H56.4552C55.2028 5.36133 54.2708 6.00905 54.2708 7.0616V11.0019C54.2708 12.4053 54.7659 13.161 56.2804 13.6198C57.5037 13.9976 59.6589 14.2135 61.785 14.2945V16.1027H52.2612C51.2127 16.1027 50.6885 16.8584 50.6885 17.6411C50.6885 18.4237 51.2127 19.1794 52.2612 19.1794H75.2115Z" fill="black"/>
<path d="M83.652 13.1071C84.7005 13.5119 87.9625 13.9168 91.6904 13.9168C95.4184 13.9168 98.6804 13.5119 99.7871 13.0801C100.836 12.6753 101.185 12.0545 101.185 10.7861V6.84578C101.185 5.79323 100.253 5.14551 99.0007 5.14551H84.3802C83.1278 5.14551 82.1958 5.79323 82.1958 6.84578V10.7861C82.1958 12.0545 82.5453 12.6753 83.652 13.1071ZM86.0403 8.11424H97.3406V10.3273C97.3406 10.4622 97.2533 10.5702 97.1076 10.5972C96.4086 10.7321 94.1078 10.948 91.6904 10.948C89.2731 10.948 86.9722 10.7321 86.2733 10.5972C86.1276 10.5702 86.0403 10.4622 86.0403 10.3273V8.11424Z" fill="black"/>
<path d="M89.7391 18.3697V19.962H83.4482C82.3414 19.962 81.788 20.6907 81.788 21.4463C81.788 22.202 82.3414 22.9307 83.4482 22.9307H97.0785V24.1722H84.2928C83.0404 24.1722 82.1084 24.8199 82.1084 25.8724V29.3809C82.1084 30.4335 83.0404 31.0812 84.2928 31.0812H100.282C101.389 31.0812 101.942 30.3255 101.942 29.5968C101.942 28.8682 101.389 28.1125 100.282 28.1125H86.0111V26.7631H98.9716C100.107 26.7631 100.981 26.1693 100.981 25.1437V21.6622C100.981 20.6097 100.049 19.962 98.7969 19.962H93.6418V18.3697H103.166C104.214 18.3697 104.738 17.587 104.738 16.8313C104.738 16.0756 104.214 15.293 103.166 15.293H80.2153C79.1668 15.293 78.6426 16.0486 78.6426 16.8313C78.6426 17.614 79.1668 18.3697 80.2153 18.3697H89.7391Z" fill="black"/>
<path d="M119.65 28.1127C123.873 28.1127 127.834 27.7079 131.3 26.8173C132.29 26.5744 132.698 25.9267 132.698 25.2789C132.698 24.4963 132.057 23.7406 131.038 23.7406C130.892 23.7406 130.688 23.7406 130.513 23.7946C127.717 24.4693 124.776 24.8471 121.601 24.9551V19.7463C124.485 19.6384 126.844 19.2335 127.747 18.8287C128.795 18.3699 129.145 17.8031 129.145 16.5347V7.46656C129.145 6.441 128.213 5.92822 127.222 5.92822C126.232 5.92822 125.3 6.441 125.3 7.46656V10.0305H114V7.46656C114 6.441 113.068 5.92822 112.077 5.92822C111.087 5.92822 110.155 6.441 110.155 7.46656V16.5347C110.155 17.8031 110.505 18.3699 111.611 18.8557C112.485 19.2335 114.815 19.6384 117.699 19.7463V24.9551C114.553 24.8471 111.553 24.4693 108.786 23.7946C108.612 23.7406 108.408 23.7136 108.262 23.7136C107.243 23.7136 106.602 24.4963 106.602 25.2789C106.602 25.9267 107.01 26.5744 108 26.8173C111.466 27.7079 115.427 28.1127 119.65 28.1127ZM114.233 16.2378C114.087 16.2108 114 16.1568 114 16.0219V13.0262H125.3V15.9679C125.3 16.1029 125.213 16.2108 125.067 16.2378C124.368 16.4267 122.067 16.7236 119.65 16.7236C117.233 16.7236 114.932 16.4267 114.233 16.2378Z" fill="black"/>
<path d="M138.086 10.2461C140.533 10.7049 144.377 10.8669 147.61 10.8669C150.843 10.8669 154.687 10.7049 157.134 10.2461C158.007 10.0572 158.677 9.51745 158.677 8.73479C158.677 7.84417 157.978 7.16946 156.959 7.16946C156.842 7.16946 156.697 7.16946 156.58 7.19645C154.6 7.5473 152.008 7.70923 149.561 7.76321V6.33282C149.561 5.28027 148.513 4.68652 147.61 4.68652C146.707 4.68652 145.659 5.25328 145.659 6.33282V7.76321C143.212 7.70923 140.62 7.5473 138.639 7.19645C138.523 7.16946 138.377 7.16946 138.261 7.16946C137.241 7.16946 136.542 7.84417 136.542 8.73479C136.542 9.51745 137.212 10.0572 138.086 10.2461Z" fill="black"/>
<path d="M147.61 28.4361C151.833 28.4361 155.794 28.0313 159.26 27.1406C160.25 26.8977 160.658 26.25 160.658 25.6023C160.658 24.8196 160.017 24.064 158.998 24.064C158.852 24.064 158.648 24.064 158.473 24.1179C155.677 24.7927 152.736 25.1705 149.561 25.2784V22.3097C153.551 21.8239 156.114 19.7998 156.114 17.047C156.114 13.8623 152.678 11.6763 147.61 11.6763C142.542 11.6763 139.105 13.8623 139.105 17.047C139.105 19.7998 141.668 21.8239 145.659 22.3097V25.2784C142.513 25.1705 139.513 24.7927 136.746 24.1179C136.572 24.064 136.368 24.037 136.222 24.037C135.203 24.037 134.562 24.8196 134.562 25.6023C134.562 26.25 134.97 26.8977 135.96 27.1406C139.426 28.0313 143.387 28.4361 147.61 28.4361ZM143.008 17.047C143.008 15.5356 144.785 14.645 147.61 14.645C150.435 14.645 152.212 15.5356 152.212 17.047C152.212 18.5583 150.435 19.395 147.61 19.395C144.785 19.395 143.008 18.5043 143.008 17.047Z" fill="black"/>
<path d="M185.472 23.3628C186.316 23.3628 187.394 22.877 187.394 21.7165V5.98223C187.394 4.82173 186.316 4.33594 185.472 4.33594C184.685 4.33594 183.549 4.82173 183.549 5.98223V21.7165C183.549 22.877 184.685 23.3628 185.472 23.3628Z" fill="black"/>
<path d="M175.453 12.4595H177.521V20.8529C177.521 22.0134 178.657 22.4992 179.443 22.4992C180.288 22.4992 181.366 22.0134 181.366 20.8529V6.27911C181.366 5.1186 180.288 4.63281 179.443 4.63281C178.657 4.63281 177.521 5.1186 177.521 6.27911V9.3288H175.453C174.405 9.3288 173.822 9.97652 173.822 10.8941C173.822 11.8117 174.405 12.4595 175.453 12.4595Z" fill="black"/>
<path d="M186.142 27.5189H172.307C172.045 27.5189 171.87 27.3569 171.87 27.114V22.3641C171.87 21.2036 170.735 20.7178 169.919 20.7178C169.104 20.7178 167.968 21.2036 167.968 22.3641V28.4635C167.968 29.7049 169.045 30.6495 170.472 30.6495H186.142C187.19 30.6495 187.773 30.0018 187.773 29.0842C187.773 28.1666 187.19 27.5189 186.142 27.5189Z" fill="black"/>
<path d="M166.104 18.4235C167.239 17.6678 168.87 15.5088 169.54 13.9164C170.21 15.5088 171.841 17.6678 172.977 18.4235C173.501 18.7744 173.938 18.9093 174.404 18.9093C175.453 18.9093 176.181 18.1536 176.181 17.4249C176.181 16.8312 175.802 16.3184 175.249 15.9136C173.705 14.7261 172.715 13.1878 172.016 11.4875C171.521 10.273 171.433 8.97756 171.433 7.97899V7.2503C171.433 6.11678 170.385 5.604 169.54 5.604C168.696 5.604 167.647 6.11678 167.647 7.2503V7.97899C167.647 8.97756 167.56 10.273 167.065 11.4875C166.366 13.1878 165.376 14.7261 163.832 15.9136C163.279 16.3184 162.9 16.8312 162.9 17.4249C162.9 18.1536 163.628 18.9093 164.677 18.9093C165.143 18.9093 165.579 18.7744 166.104 18.4235Z" fill="black"/>
<path d="M207.781 16.0489H210.577V29.5431C210.577 30.7036 211.713 31.1894 212.529 31.1894C213.344 31.1894 214.48 30.7036 214.48 29.5431V5.98223C214.48 4.82173 213.344 4.33594 212.529 4.33594C211.713 4.33594 210.577 4.82173 210.577 5.98223V12.9183H207.781C206.733 12.9183 206.296 13.566 206.296 14.4836C206.296 15.4012 206.733 16.0489 207.781 16.0489Z" fill="black"/>
<path d="M199.598 24.1725C201.636 24.1725 203.966 24.0106 206.18 23.3628C207.141 23.066 207.549 22.5532 207.549 21.8515C207.549 20.9609 206.879 20.3131 205.859 20.3131C205.655 20.3131 205.452 20.3401 205.219 20.3941C203.209 20.9339 201.345 21.0958 199.598 21.0958C198.578 21.0958 197.18 20.9879 196.306 20.8259C196.161 20.7989 196.044 20.718 196.044 20.5291V16.049H203.617C204.898 16.049 205.364 15.2933 205.364 14.5376C205.364 13.7819 204.898 13.0263 203.617 13.0263H196.044V9.11295H204.578C205.859 9.11295 206.325 8.33028 206.325 7.54762C206.325 6.76495 205.859 6.00928 204.578 6.00928H194.326C193.074 6.00928 192.142 6.657 192.142 7.70955V20.9609C192.142 22.2023 192.637 23.1469 194.239 23.5518C195.986 24.0376 198.054 24.1725 199.598 24.1725Z" fill="black"/>
</svg>
