<svg width="100" height="99" viewBox="0 0 100 99" fill="none" xmlns="http://www.w3.org/2000/svg">
<g clip-path="url(#clip0_135_8)">
<path d="M19.8886 89.6014L13.5746 84.0641C13.1379 83.6828 13.0226 83.0958 13.4775 82.5754C13.9446 82.0428 14.539 82.0852 14.9817 82.4664L17.2199 84.4332L24.5165 76.1545C25.0806 75.513 25.6811 75.6522 26.1724 76.0879C26.6637 76.5176 26.8699 77.1349 26.3301 77.7521L19.0395 86.0309L21.2958 88.0098C21.7325 88.3911 21.8478 88.9781 21.3807 89.5106C20.9258 90.0311 20.3254 89.9887 19.8886 89.6075V89.6014Z" fill="white"/>
<path d="M18.3724 66.3024C20.1859 69.5945 18.9425 73.2861 15.1456 75.3679C11.3183 77.4678 7.46682 76.5782 5.65327 73.2861C3.85792 70.0242 5.23476 66.3871 9.04382 64.2993C12.8529 62.2054 16.5831 63.0587 18.3724 66.3024ZM16.5528 67.3009C15.4913 65.3765 13.0773 64.9165 10.2084 66.496C7.21208 68.1421 6.40538 70.3631 7.46683 72.2875C8.60105 74.3391 10.9302 74.8837 13.9265 73.2377C16.7954 71.6642 17.6809 69.3525 16.5528 67.3009Z" fill="white"/>
<path d="M0.655247 59.9181L0.0911663 56.3657C-0.40013 53.2612 1.2072 51.0947 3.74253 50.6953C6.31425 50.2898 8.38861 51.8753 8.87991 54.9738L9.31055 57.6789L13.5321 57.0132C14.3751 56.8801 14.7512 57.3703 14.8543 58.0178C14.9574 58.6654 14.7209 59.2705 13.9142 59.3976L2.35962 61.2252C1.49834 61.3644 0.806882 60.8258 0.661313 59.912L0.655247 59.9181ZM7.20586 58.0178L6.78129 55.3309C6.52654 53.7332 5.6046 52.9041 4.09432 53.1462C2.49306 53.4004 1.94111 54.4413 2.19585 56.0571L2.62043 58.744L7.20586 58.0178Z" fill="white"/>
<path d="M5.54992 24.528L10.1596 17.514C10.4811 17.0299 11.0452 16.8302 11.6214 17.2114C12.2158 17.5987 12.2582 18.1918 11.9428 18.682L10.3052 21.1693L19.5428 27.2149C20.2585 27.6809 20.2039 28.2982 19.84 28.8428C19.4821 29.3875 18.8998 29.678 18.2144 29.2301L8.97686 23.1845L7.33314 25.6899C7.01167 26.174 6.44759 26.3737 5.85925 25.9804C5.28304 25.6052 5.23452 25.006 5.55598 24.5219L5.54992 24.528Z" fill="white"/>
<path d="M28.4531 19.7533C25.4446 22.0106 21.6052 21.3025 19.0032 17.847C16.3769 14.3612 16.7165 10.4276 19.731 8.17033C22.7152 5.93119 26.5182 6.78449 29.1324 10.2521C31.7466 13.7197 31.4251 17.5263 28.4591 19.7533H28.4531ZM27.2036 18.1012C28.9626 16.7819 29.0778 14.331 27.1066 11.7227C25.0504 8.99336 22.7273 8.50922 20.9684 9.8285C19.0942 11.2385 18.8819 13.6169 20.9381 16.3462C22.9032 18.9605 25.3233 19.5112 27.1975 18.1012H27.2036Z" fill="white"/>
<path d="M32.3102 1.34961L35.7554 0.296615C38.7638 -0.623245 41.1414 0.66577 41.8935 3.11066C42.6578 5.59187 41.3719 7.86731 38.3635 8.78717L35.7372 9.59205L36.9866 13.6709C37.2353 14.4879 36.7986 14.9236 36.1739 15.1173C35.5492 15.3109 34.9123 15.1596 34.6757 14.379L31.2488 3.21354C30.994 2.37841 31.4247 1.62194 32.3163 1.34961H32.3102ZM35.1124 7.55867L37.7206 6.75985C39.2672 6.28781 39.9648 5.25902 39.5159 3.80056C39.0428 2.25737 37.9268 1.85796 36.3619 2.33604L33.7538 3.13487L35.1124 7.56472V7.55867Z" fill="white"/>
<path d="M77.7524 6.03934L84.4365 11.1228C84.8974 11.4738 85.0551 12.0487 84.6366 12.5994C84.206 13.1622 83.6116 13.1622 83.1445 12.8112L80.773 11.0078L74.0768 19.7707C73.5612 20.4485 72.9486 20.3516 72.427 19.9522C71.9054 19.5528 71.6567 18.9537 72.154 18.3062L78.8502 9.54329L76.4605 7.72777C75.9995 7.37677 75.8418 6.80186 76.2724 6.23905C76.691 5.68834 77.2914 5.68834 77.7524 6.03934Z" fill="white"/>
<path d="M80.9004 29.1754C78.8564 26.0164 79.845 22.2462 83.4843 19.9042C87.1538 17.544 91.0599 18.1613 93.104 21.3203C95.1237 24.449 94.0017 28.1769 90.3503 30.5249C86.6929 32.8791 82.9141 32.286 80.9004 29.1754ZM82.6472 28.0558C83.8421 29.9016 86.2804 30.1921 89.0341 28.4189C91.9091 26.5671 92.5581 24.2917 91.3693 22.4459C90.0955 20.4791 87.73 20.0978 84.855 21.9497C82.1014 23.7228 81.3796 26.089 82.6533 28.0558H82.6472Z" fill="white"/>
<path d="M99.0176 34.3194L99.8243 37.8234C100.528 40.8855 99.0722 43.1549 96.5732 43.7299C94.0379 44.3108 91.8604 42.8705 91.1508 39.8144L90.5382 37.1395L86.3713 38.0957C85.5403 38.2894 85.1339 37.8234 84.9883 37.1819C84.8428 36.5465 85.0369 35.9231 85.8314 35.7416L97.2344 33.1273C98.0835 32.9336 98.8114 33.4177 99.0236 34.3194H99.0176ZM92.6125 36.6675L93.2251 39.3182C93.5891 40.8916 94.5656 41.6541 96.0577 41.3152C97.6347 40.9521 98.1138 39.8749 97.7499 38.2833L97.1373 35.6266L92.6125 36.6615V36.6675Z" fill="white"/>
<path d="M91.102 79.2112L85.5401 85.4989C85.1519 85.9346 84.5696 86.0496 84.048 85.5897C83.5143 85.1237 83.5567 84.5306 83.9388 84.0949L85.9101 81.8618L77.6308 74.5756C76.9879 74.0128 77.1335 73.4136 77.5641 72.9235C77.9947 72.4333 78.6134 72.2275 79.2321 72.7661L87.5113 80.0524L89.4947 77.8072C89.8768 77.3715 90.4652 77.2565 90.9989 77.7285C91.5145 78.1824 91.4781 78.7815 91.0899 79.2172L91.102 79.2112Z" fill="white"/>
<path d="M67.7507 80.694C71.0563 78.8845 74.7501 80.1372 76.8306 83.9256C78.9292 87.7442 78.0315 91.5931 74.7319 93.3965C71.4627 95.1878 67.8174 93.802 65.7249 89.9955C63.6323 86.1889 64.4936 82.4671 67.7507 80.6879V80.694ZM68.7454 82.5095C66.8166 83.5625 66.3496 85.9711 67.9266 88.8396C69.5703 91.8352 71.8024 92.6401 73.7312 91.5871C75.7873 90.4614 76.3393 88.1315 74.6895 85.1359C73.1125 82.2674 70.8016 81.3839 68.7394 82.5095H68.7454Z" fill="white"/>
<path d="M61.3212 98.3585L57.7608 98.9152C54.6493 99.3994 52.484 97.7896 52.0897 95.266C51.6894 92.7001 53.2785 90.6365 56.3901 90.1463L59.1013 89.7227L58.4402 85.5107C58.3067 84.6695 58.8041 84.2943 59.447 84.1975C60.096 84.0946 60.7026 84.3306 60.8299 85.1415L62.6374 96.67C62.7708 97.5294 62.2371 98.2193 61.3212 98.3645V98.3585ZM59.4288 91.8166L56.7358 92.2402C55.1345 92.4883 54.3036 93.4082 54.5401 94.915C54.7888 96.5127 55.8321 97.0634 57.4515 96.8092L60.1506 96.3856L59.4349 91.8105L59.4288 91.8166Z" fill="white"/>
<path d="M51.9802 2.57822C52.0105 2.42087 52.0712 2.26958 52.1682 2.13039C52.4169 1.77334 52.793 1.70677 53.1933 1.84596C53.5875 1.98515 53.8787 2.25748 54.091 2.61453C54.2608 2.89291 54.3882 3.18944 54.4185 3.51018C54.4549 3.86723 54.4185 4.22429 54.1637 4.51477C53.9697 4.73263 53.727 4.7992 53.448 4.76894C53.0295 4.72053 52.7262 4.47846 52.4715 4.17587C52.1197 3.7583 51.865 3.13498 51.9802 2.57822Z" fill="white"/>
<path d="M55.9105 0.41798C56.2744 0.514807 56.5717 0.859755 56.7172 1.21681C56.9416 1.76751 56.9416 2.32427 56.6869 2.86892C56.5716 3.11704 56.3958 3.30465 56.1349 3.40753C55.8499 3.52251 55.5951 3.46804 55.3404 3.3107C55.0856 3.15335 54.934 2.91129 54.8248 2.64501C54.6247 2.14877 54.6065 1.64648 54.7884 1.14419C54.8915 0.865807 55.0553 0.62979 55.3343 0.484549C55.5345 0.38167 55.7286 0.369566 55.9105 0.41798Z" fill="white"/>
<path d="M61.7576 4.87167C61.6727 5.39212 61.1086 5.80969 60.6719 6.02755C60.2838 6.22121 59.8713 6.31198 59.4346 6.2091C59.101 6.13648 58.8887 5.90652 58.8645 5.57367C58.8523 5.36791 58.9069 5.16821 59.0161 4.99271C59.2951 4.53883 59.6893 4.23019 60.1867 4.04864C60.4293 3.95786 60.6841 3.90945 60.9449 3.92761C61.4119 3.96392 61.8062 4.33307 61.7576 4.82326C61.7576 4.84141 61.7576 4.85352 61.7516 4.87167H61.7576Z" fill="white"/>
<path d="M58.3912 4.05544C57.9059 4.05544 57.6148 3.78917 57.542 3.36555C57.4814 3.02665 57.5723 2.71801 57.7179 2.42148C57.9181 2.00391 58.2274 1.69527 58.652 1.50162C58.8339 1.41689 59.0341 1.36243 59.2403 1.38664C59.6042 1.43505 59.8105 1.6287 59.9136 1.9797C59.9985 2.27019 59.9439 2.54251 59.8469 2.80879C59.6528 3.33529 59.301 3.72865 58.7793 3.95861C58.6338 4.01913 58.4821 4.05544 58.3972 4.05544H58.3912Z" fill="white"/>
<path d="M56.4564 4.29707C57.3358 4.36364 57.9666 5.25324 58.3366 5.96129C58.7612 6.76617 59.2889 8.2791 58.6096 9.07792C58.2274 9.52575 57.6027 9.64073 57.0568 9.47128C56.4078 9.26552 56.0196 8.69666 55.8377 8.06123C55.868 8.17622 55.3343 8.41223 55.2433 8.44854C54.5397 8.75113 53.1568 8.92058 52.8656 7.93415C52.6655 7.2503 53.1932 6.57856 53.5814 6.07022C53.9332 5.61029 54.3699 5.21693 54.8612 4.90829C55.3039 4.62386 55.7892 4.29102 56.335 4.29102C56.3714 4.29102 56.4078 4.29102 56.4442 4.29102L56.4564 4.29707Z" fill="white"/>
<path d="M2.80801 42.102C2.66244 42.0294 2.53507 41.9325 2.41983 41.8055C2.13475 41.4787 2.16508 41.0974 2.39557 40.7464C2.62605 40.3954 2.96571 40.1896 3.36603 40.0686C3.67536 39.9718 3.99683 39.9234 4.31829 39.9778C4.67615 40.0323 5.00975 40.1533 5.2281 40.4741C5.39187 40.7101 5.39793 40.9643 5.30089 41.2245C5.14925 41.6179 4.83992 41.8478 4.48206 42.0233C3.99076 42.2654 3.3175 42.3501 2.80801 42.102Z" fill="white"/>
<path d="M1.69221 37.7696C1.88024 37.4428 2.28662 37.2371 2.66874 37.1886C3.25708 37.11 3.7969 37.2431 4.26393 37.6304C4.47622 37.8059 4.61573 38.0238 4.65212 38.2961C4.69458 38.5987 4.57327 38.8347 4.36098 39.0405C4.14263 39.2462 3.86968 39.3309 3.58461 39.3733C3.05692 39.4459 2.55956 39.337 2.11679 39.0344C1.86811 38.865 1.68614 38.6471 1.61336 38.3445C1.56484 38.1267 1.60123 37.9391 1.69221 37.7757V37.7696Z" fill="white"/>
<path d="M7.46625 33.2243C7.95148 33.4361 8.21229 34.0837 8.32147 34.5557C8.41245 34.9793 8.39425 35.3969 8.1941 35.7963C8.0364 36.0989 7.76345 36.2502 7.43592 36.1897C7.2297 36.1534 7.0538 36.0505 6.90823 35.8992C6.53218 35.5179 6.33202 35.058 6.2835 34.5315C6.25924 34.2713 6.27137 34.0171 6.35628 33.769C6.50792 33.3272 6.96282 33.0367 7.42379 33.2062C7.43592 33.2062 7.45412 33.2183 7.46625 33.2243Z" fill="white"/>
<path d="M5.84117 36.2807C5.71987 36.7467 5.39234 36.9646 4.96169 36.9283C4.62203 36.898 4.34302 36.7406 4.08828 36.5228C3.73649 36.2202 3.51207 35.845 3.42715 35.3911C3.39076 35.1914 3.38469 34.9917 3.46354 34.798C3.59698 34.4592 3.8396 34.3079 4.20959 34.2958C4.51286 34.2837 4.76154 34.4047 4.99809 34.5681C5.46512 34.8888 5.75626 35.3245 5.84724 35.8874C5.8715 36.0447 5.86544 36.202 5.84724 36.2807H5.84117Z" fill="white"/>
<path d="M5.59221 38.2049C5.87728 37.3698 6.8902 36.9825 7.6787 36.8009C8.57031 36.5891 10.1655 36.456 10.772 37.3093C11.1117 37.7873 11.0692 38.4228 10.772 38.9069C10.4081 39.4879 9.76519 39.7178 9.10407 39.736C9.22537 39.736 9.31635 40.3049 9.33455 40.4017C9.45586 41.1581 9.2739 42.5319 8.24278 42.5682C7.52707 42.5924 7.01151 41.9146 6.61119 41.4123C6.25333 40.9584 5.98039 40.438 5.79843 39.8873C5.63467 39.385 5.42844 38.8403 5.56188 38.3078C5.57401 38.2715 5.58008 38.2352 5.59221 38.1989V38.2049Z" fill="white"/>
<path d="M39.6252 95.1027C39.5464 95.2418 39.4372 95.3629 39.2977 95.4597C38.9459 95.7139 38.5698 95.6534 38.2362 95.3931C37.9087 95.1329 37.7267 94.7759 37.6358 94.3765C37.563 94.0618 37.5448 93.741 37.6236 93.4263C37.7085 93.0753 37.8541 92.7546 38.1938 92.5609C38.4485 92.4157 38.6972 92.4339 38.9519 92.5549C39.328 92.7364 39.5403 93.0632 39.6798 93.4324C39.8799 93.9407 39.9103 94.6185 39.6191 95.1027H39.6252Z" fill="white"/>
<path d="M35.2039 95.8593C34.8946 95.6475 34.7248 95.2239 34.7005 94.8427C34.6702 94.2496 34.8521 93.7231 35.2707 93.2934C35.4587 93.0998 35.6892 92.9787 35.9682 92.9606C36.2714 92.9424 36.5019 93.0816 36.6839 93.3116C36.8719 93.5476 36.9326 93.8199 36.9508 94.1104C36.9811 94.6429 36.8295 95.1271 36.4898 95.5447C36.3018 95.7746 36.0652 95.9441 35.7619 95.9864C35.5436 96.0167 35.3556 95.9683 35.1979 95.8593H35.2039Z" fill="white"/>
<path d="M31.1399 89.7408C31.3886 89.2748 32.0619 89.069 32.541 89.0025C32.9717 88.9419 33.3902 89.0025 33.7662 89.2324C34.0574 89.414 34.1847 89.6984 34.0938 90.0191C34.0392 90.2188 33.9179 90.3883 33.7602 90.5214C33.3477 90.8603 32.8746 91.0237 32.3469 91.0298C32.0861 91.0298 31.8314 90.9995 31.5888 90.8906C31.1581 90.703 30.9094 90.2249 31.1157 89.7831C31.1217 89.771 31.1278 89.7529 31.1399 89.7408Z" fill="white"/>
<path d="M34.0572 91.6106C34.5121 91.774 34.7001 92.1129 34.6334 92.5365C34.5788 92.8754 34.3969 93.1356 34.1603 93.3717C33.8328 93.6984 33.4385 93.8921 32.9776 93.9345C32.7774 93.9526 32.5712 93.9405 32.3892 93.8497C32.0617 93.6863 31.9283 93.4382 31.9465 93.0691C31.9586 92.7725 32.0981 92.5305 32.2801 92.3066C32.6379 91.8708 33.0989 91.6167 33.669 91.5682C33.8267 91.5561 33.9844 91.5743 34.0633 91.6046L34.0572 91.6106Z" fill="white"/>
<path d="M35.9618 92.0163C35.1551 91.6653 34.8518 90.6244 34.7305 89.8256C34.597 88.9239 34.591 87.3262 35.4947 86.7876C36.0042 86.485 36.629 86.5819 37.0899 86.9268C37.6358 87.3383 37.8178 87.998 37.7814 88.6516C37.7874 88.5305 38.3697 88.4882 38.4668 88.4761C39.231 88.4155 40.5896 88.7121 40.5411 89.7409C40.5047 90.455 39.789 90.9149 39.2553 91.2659C38.77 91.5866 38.2302 91.8166 37.6661 91.9497C37.1506 92.0708 36.5865 92.2281 36.0709 92.0526C36.0345 92.0405 36.0042 92.0284 35.9678 92.0103L35.9618 92.0163Z" fill="white"/>
<path d="M96.8585 56.6869C96.9858 56.7475 97.1071 56.8322 97.2042 56.9472C97.4589 57.2316 97.4407 57.5765 97.2345 57.8852C97.0344 58.1999 96.7311 58.3875 96.3793 58.4964C96.1063 58.5872 95.8213 58.6295 95.5362 58.5872C95.2208 58.5388 94.9175 58.4419 94.7234 58.1575C94.5779 57.9457 94.5657 57.7218 94.6507 57.4918C94.778 57.1408 95.051 56.9351 95.3664 56.7717C95.8031 56.5538 96.3975 56.4691 96.8524 56.6809L96.8585 56.6869Z" fill="white"/>
<path d="M97.8955 60.5236C97.7317 60.8141 97.3739 61.0017 97.0342 61.0501C96.5126 61.1288 96.0334 61.0077 95.6149 60.6749C95.4269 60.5236 95.2995 60.3299 95.2631 60.0879C95.2267 59.8216 95.3298 59.6098 95.5118 59.4282C95.6998 59.2406 95.9424 59.168 96.1972 59.1256C96.6642 59.053 97.107 59.1438 97.5012 59.4101C97.7196 59.5553 97.8894 59.749 97.9562 60.0152C98.0047 60.2089 97.9743 60.3783 97.8894 60.5236H97.8955Z" fill="white"/>
<path d="M92.8126 64.614C92.382 64.4324 92.1394 63.8575 92.0423 63.4399C91.9574 63.0647 91.9695 62.6956 92.1454 62.3385C92.2789 62.0662 92.5215 61.9331 92.8126 61.9815C92.9946 62.0117 93.1523 62.1025 93.2857 62.2356C93.6193 62.5685 93.8013 62.9739 93.8559 63.4399C93.8801 63.6699 93.8741 63.8999 93.7952 64.1177C93.6618 64.5111 93.2615 64.7713 92.8551 64.6261C92.843 64.6261 92.8308 64.614 92.8187 64.6079L92.8126 64.614Z" fill="white"/>
<path d="M94.226 61.8848C94.3291 61.4672 94.6141 61.2736 95.0023 61.3038C95.3056 61.322 95.5543 61.4672 95.7787 61.6548C96.0941 61.9151 96.3003 62.2479 96.3731 62.6534C96.4095 62.8289 96.4156 63.0104 96.3488 63.1799C96.2336 63.4825 96.0213 63.6156 95.6938 63.6338C95.4269 63.6459 95.2025 63.543 94.9902 63.4038C94.5717 63.1254 94.3109 62.7381 94.226 62.2419C94.2017 62.1027 94.2078 61.9635 94.226 61.8909V61.8848Z" fill="white"/>
<path d="M94.426 60.1723C94.1834 60.9166 93.2857 61.2676 92.5882 61.4431C91.7997 61.6368 90.3865 61.7699 89.8345 61.0195C89.5252 60.5959 89.5555 60.0331 89.8224 59.6034C90.1378 59.089 90.7079 58.8772 91.2963 58.853C91.1871 58.853 91.1022 58.3507 91.084 58.2599C90.9687 57.5882 91.1204 56.3657 92.0302 56.3234C92.667 56.2931 93.128 56.8862 93.4859 57.334C93.8073 57.7334 94.056 58.1934 94.2198 58.6775C94.3714 59.1193 94.5594 59.6034 94.4442 60.0754C94.4381 60.1057 94.426 60.142 94.4199 60.1723H94.426Z" fill="white"/>
</g>
<defs>
<clipPath id="clip0_135_8">
<rect width="100" height="99" fill="white"/>
</clipPath>
</defs>
</svg>
