<svg width="100" height="101" viewBox="0 0 100 101" fill="none" xmlns="http://www.w3.org/2000/svg">
<g clip-path="url(#clip0_135_593)">
<path d="M20.4401 91.5689L15.6326 87.7579C15.3001 87.4928 15.1937 87.0753 15.5063 86.6776C15.8321 86.2733 16.2643 86.28 16.5968 86.5451L18.3057 87.8971L23.3326 81.6008C23.7249 81.1103 24.1638 81.1965 24.5428 81.4947C24.9151 81.793 25.088 82.237 24.7157 82.701L19.6887 88.9973L21.4043 90.356C21.7367 90.6211 21.8431 91.0453 21.5173 91.4496C21.2048 91.8406 20.7659 91.834 20.4335 91.5755L20.4401 91.5689Z" fill="white"/>
<path d="M17.8801 74.7344C19.569 76.8951 19.1036 79.6986 16.6034 81.6405C14.0899 83.5957 11.2041 83.4035 9.50851 81.2362C7.83287 79.0955 8.40472 76.3118 10.9115 74.3633C13.4183 72.4147 16.2044 72.6003 17.8734 74.7344H17.8801ZM16.6832 75.6623C15.6924 74.3964 13.9038 74.3434 12.0153 75.8148C10.0471 77.3458 9.72129 79.0425 10.7054 80.3084C11.7627 81.6538 13.5048 81.7797 15.4797 80.2487C17.3681 78.784 17.7404 77.0144 16.6832 75.6689V75.6623Z" fill="white"/>
<path d="M4.3887 73.0771L3.30486 70.6844C2.36064 68.5967 3.07213 66.7608 4.78102 65.992C6.51651 65.2099 8.28524 65.9257 9.22945 68.0201L10.054 69.8427L12.8999 68.5636C13.4718 68.3051 13.8308 68.5834 14.0237 69.0142C14.2231 69.4517 14.1699 69.9223 13.6247 70.1675L5.83162 73.6735C5.25312 73.9387 4.66133 73.6934 4.38206 73.0771H4.3887ZM8.63766 70.479L7.81978 68.6696C7.33438 67.5959 6.52315 67.185 5.5058 67.6489C4.4286 68.1328 4.23577 68.9745 4.72782 70.0614L5.5457 71.8708L8.63766 70.479Z" fill="white"/>
<path d="M7.6733 21.4005L11.4302 16.5556C11.6895 16.2176 12.1151 16.1116 12.5141 16.4164C12.9263 16.7346 12.9263 17.1654 12.6603 17.5034L11.3238 19.22L17.7072 24.1377C18.1993 24.5222 18.1261 24.9662 17.8336 25.3374C17.541 25.7151 17.1021 25.8941 16.6234 25.5296L10.24 20.6118L8.89679 22.3416C8.63746 22.6796 8.2119 22.7857 7.80629 22.4742C7.40733 22.1693 7.40733 21.7319 7.66665 21.3939L7.6733 21.4005Z" fill="white"/>
<path d="M24.536 18.5977C22.3883 20.3143 19.5689 19.8835 17.5874 17.4246C15.5926 14.9459 15.7455 12.0628 17.8933 10.3462C20.0211 8.64288 22.8205 9.17973 24.8086 11.6519C26.7968 14.124 26.6505 16.9077 24.536 18.5977ZM23.5852 17.418C24.8419 16.4106 24.8685 14.6277 23.3657 12.7653C21.8031 10.8234 20.0942 10.5185 18.8375 11.5259C17.501 12.5996 17.4012 14.3427 18.9638 16.2847C20.4599 18.147 22.242 18.4917 23.5785 17.418H23.5852Z" fill="white"/>
<path d="M26.0188 5.12297L28.4059 4.00951C30.4872 3.03524 32.3423 3.72452 33.1336 5.42122C33.9382 7.1378 33.2466 8.90741 31.1587 9.88168L29.3435 10.73L30.6667 13.5534C30.9327 14.1168 30.6667 14.4813 30.2278 14.6802C29.7956 14.879 29.3169 14.8392 29.0642 14.3024L25.4403 6.58107C25.1677 6.00446 25.407 5.41459 26.0188 5.12297ZM28.6852 9.32495L30.4938 8.48323C31.5644 7.98615 31.9633 7.17094 31.4912 6.16353C30.9925 5.09646 30.1414 4.91751 29.0575 5.42785L27.2489 6.26957L28.6852 9.33158V9.32495Z" fill="white"/>
<path d="M74.7389 5.77299L79.8988 9.08686C80.2579 9.31883 80.4041 9.72312 80.1315 10.1473C79.8522 10.5847 79.4134 10.6179 79.061 10.3859L77.2257 9.20616L72.8504 15.9664C72.5113 16.49 72.0592 16.4503 71.6602 16.1918C71.2546 15.9333 71.0418 15.5091 71.3676 15.0054L75.7429 8.24513L73.901 7.05877C73.542 6.8268 73.3957 6.42251 73.675 5.98508C73.9476 5.5609 74.3865 5.52777 74.7389 5.75311V5.77299Z" fill="white"/>
<path d="M79.0015 22.2696C77.0997 20.2879 77.2859 17.4512 79.5733 15.2707C81.8806 13.0703 84.7665 12.9775 86.6749 14.9592C88.5566 16.921 88.2707 19.7444 85.9767 21.9382C83.6826 24.1253 80.8832 24.2247 79.0081 22.2696H79.0015ZM80.092 21.229C81.2024 22.3889 82.9911 22.2563 84.7266 20.606C86.5352 18.8828 86.6815 17.1596 85.5711 15.9997C84.3875 14.767 82.632 14.82 80.83 16.5432C79.1012 18.1935 78.9084 19.9896 80.0986 21.2224L80.092 21.229Z" fill="white"/>
<path d="M92.5993 22.5878L93.9159 24.8611C95.0662 26.8494 94.5409 28.7449 92.9118 29.6795C91.2628 30.6272 89.4342 30.0904 88.2839 28.1021L87.2798 26.3656L84.5735 27.9231C84.0349 28.2346 83.6492 27.996 83.4099 27.5851C83.1705 27.1742 83.1705 26.697 83.6891 26.3987L91.0966 22.1371C91.6484 21.819 92.2602 21.9979 92.5993 22.5878ZM88.6296 25.5901L89.627 27.3134C90.2188 28.334 91.07 28.6588 92.0341 28.1021C93.0581 27.5122 93.1645 26.6572 92.5661 25.6233L91.5687 23.9001L88.6296 25.5901Z" fill="white"/>
<path d="M90.5179 80.5133L86.5415 85.1858C86.2689 85.5106 85.8367 85.6034 85.451 85.2786C85.0587 84.9472 85.0787 84.5098 85.3513 84.185L86.761 82.5281L80.597 77.3253C80.1182 76.921 80.218 76.4836 80.5239 76.1191C80.8297 75.7546 81.2819 75.5955 81.7407 75.9799L87.9047 81.1827L89.321 79.5125C89.5936 79.1877 90.0258 79.0949 90.4181 79.4329C90.8038 79.7577 90.7838 80.1951 90.5112 80.5199L90.5179 80.5133Z" fill="white"/>
<path d="M73.2761 82.5552C75.1911 80.9381 77.5982 81.4948 79.2073 84.0465C80.8298 86.618 80.5771 89.4878 78.6621 91.0984C76.767 92.7023 74.3799 92.0395 72.7641 89.4812C71.1483 86.9229 71.3877 84.1459 73.2761 82.5552ZM74.0474 83.7814C72.9303 84.7291 72.8372 86.512 74.0474 88.4407C75.3174 90.4555 76.7736 90.8333 77.8907 89.8855C79.0876 88.8781 79.2406 87.1416 77.9705 85.1268C76.7537 83.1981 75.2376 82.774 74.0474 83.7814Z" fill="white"/>
<path d="M71.4608 95.9497L69.0271 96.9571C66.8993 97.8385 65.084 97.0697 64.3659 95.3399C63.6345 93.5902 64.4124 91.8471 66.5336 90.9722L68.3888 90.2034L67.1919 87.327C66.9525 86.7504 67.2384 86.4057 67.6839 86.2201C68.1294 86.0346 68.6016 86.1008 68.8276 86.6509L72.1058 94.5247C72.3518 95.1145 72.0858 95.6912 71.4608 95.9563V95.9497ZM68.9872 91.6284L67.1453 92.3906C66.0548 92.8412 65.6226 93.6366 66.0482 94.6639C66.5003 95.7508 67.3382 95.9695 68.442 95.5122L70.2838 94.75L68.9872 91.6284Z" fill="white"/>
<path d="M47.4764 2.59189C47.503 2.41957 47.5628 2.24725 47.6626 2.09481C47.9153 1.69052 48.3209 1.59773 48.7664 1.73028C49.2052 1.86284 49.5377 2.14783 49.7904 2.51898C49.9899 2.8106 50.1428 3.12873 50.196 3.48C50.2558 3.87104 50.2425 4.26208 49.9766 4.59346C49.7771 4.83869 49.5178 4.93148 49.2119 4.91159C48.7531 4.88508 48.4073 4.63323 48.1081 4.3151C47.6958 3.87767 47.3833 3.20827 47.483 2.59189H47.4764Z" fill="white"/>
<path d="M51.6658 0.0199453C52.0648 0.106106 52.4172 0.470631 52.5901 0.848412C52.8627 1.43828 52.896 2.04803 52.6433 2.65778C52.5303 2.93615 52.3441 3.14823 52.0715 3.28079C51.7656 3.41997 51.4797 3.37358 51.2004 3.21451C50.9145 3.05545 50.7349 2.79696 50.6019 2.51197C50.3559 1.98175 50.3027 1.43165 50.4823 0.868295C50.582 0.556792 50.7482 0.291682 51.0408 0.119361C51.2536 -0.00656562 51.4664 -0.0264488 51.6658 0.0199453Z" fill="white"/>
<path d="M58.3083 4.57999C58.2418 5.14998 57.65 5.64043 57.1845 5.90554C56.7723 6.13751 56.3267 6.25681 55.8413 6.17065C55.469 6.10437 55.2229 5.86577 55.183 5.50787C55.1564 5.28253 55.2096 5.06382 55.316 4.86498C55.5953 4.35465 56.0076 3.99675 56.5462 3.77141C56.8121 3.65874 57.0848 3.59246 57.3707 3.59909C57.8827 3.61234 58.3349 3.99675 58.3083 4.5336C58.3083 4.55348 58.3083 4.56674 58.3083 4.58662V4.57999Z" fill="white"/>
<path d="M54.5715 3.8704C54.0396 3.89029 53.7071 3.62518 53.6074 3.16124C53.5276 2.79671 53.6074 2.45207 53.747 2.12068C53.9465 1.65674 54.2657 1.29884 54.7178 1.06687C54.9173 0.967457 55.1234 0.894552 55.3562 0.907808C55.7551 0.940946 55.9945 1.13978 56.1275 1.52419C56.2339 1.83569 56.194 2.13394 56.1009 2.43219C55.9147 3.02205 55.5556 3.46611 54.9904 3.74448C54.8375 3.82401 54.6646 3.86378 54.5782 3.8704H54.5715Z" fill="white"/>
<path d="M52.4702 4.23535C53.4343 4.26186 54.1724 5.19637 54.6246 5.95856C55.1299 6.82017 55.7948 8.44396 55.0967 9.35196C54.7044 9.8623 54.0261 10.028 53.421 9.8623C52.6962 9.67009 52.2441 9.0736 52.0114 8.39094C52.0512 8.51687 51.4794 8.80186 51.3863 8.84825C50.6283 9.21941 49.1255 9.47789 48.7598 8.41082C48.5005 7.66852 49.0391 6.91296 49.4447 6.33634C49.8038 5.81275 50.2626 5.36207 50.7812 4.99091C51.2533 4.65953 51.7587 4.26849 52.3638 4.23535C52.4037 4.23535 52.4436 4.23535 52.4835 4.23535H52.4702Z" fill="white"/>
<path d="M46.0338 98.607C46.0006 98.7793 45.9341 98.945 45.8277 99.0974C45.5551 99.4885 45.1428 99.5614 44.7039 99.4089C44.2717 99.2565 43.9526 98.9583 43.7198 98.5672C43.5336 98.2623 43.394 97.9376 43.3608 97.5863C43.3209 97.1953 43.3608 96.8042 43.64 96.4861C43.8528 96.2475 44.1188 96.1746 44.4247 96.2077C44.8835 96.2608 45.2159 96.5259 45.4952 96.8573C45.8809 97.3146 46.1602 97.9972 46.0338 98.607Z" fill="white"/>
<path d="M41.7251 100.967C41.3261 100.861 41.0003 100.484 40.8407 100.092C40.5947 99.4894 40.5947 98.8796 40.874 98.2831C41.0003 98.0114 41.1931 97.8059 41.4791 97.6932C41.7916 97.5673 42.0709 97.627 42.3501 97.7993C42.6294 97.9716 42.7956 98.2367 42.9153 98.5283C43.1348 99.0718 43.1547 99.6219 42.9552 100.172C42.8422 100.477 42.6626 100.735 42.3568 100.894C42.1373 101.007 41.9246 101.02 41.7251 100.967Z" fill="white"/>
<path d="M35.315 96.0888C35.4081 95.5188 36.0265 95.0615 36.5052 94.8229C36.9308 94.6108 37.3829 94.5114 37.8617 94.6241C38.2274 94.7036 38.4601 94.9555 38.4867 95.32C38.5 95.5454 38.4402 95.7641 38.3205 95.9563C38.0146 96.4534 37.5824 96.7914 37.0372 96.9902C36.7712 97.0896 36.4919 97.1426 36.206 97.1228C35.694 97.083 35.2618 96.6787 35.315 96.1418C35.315 96.122 35.315 96.1087 35.3216 96.0888H35.315Z" fill="white"/>
<path d="M39.012 96.9834C39.5439 96.9834 39.8631 97.275 39.9429 97.739C40.0094 98.1101 39.9096 98.4481 39.7501 98.7729C39.5306 99.2302 39.1915 99.5682 38.7261 99.7803C38.5266 99.8731 38.3071 99.9327 38.0811 99.9062C37.6821 99.8532 37.456 99.6411 37.343 99.2567C37.2499 98.9386 37.3097 98.6403 37.4161 98.3487C37.6289 97.7721 38.0146 97.3413 38.5864 97.0894C38.746 97.0232 38.9122 96.9834 39.0053 96.9834H39.012Z" fill="white"/>
<path d="M41.1265 96.7248C40.1623 96.6519 39.4708 95.6777 39.0652 94.9022C38.5997 94.0207 38.0213 92.3638 38.766 91.4889C39.1849 90.9985 39.8698 90.8726 40.4682 91.0581C41.1797 91.2835 41.6053 91.9065 41.8047 92.6024C41.7715 92.4765 42.3566 92.218 42.4564 92.1782C43.2277 91.8468 44.7438 91.6612 45.0629 92.7416C45.2824 93.4905 44.7039 94.2262 44.2783 94.7829C43.8926 95.2866 43.4139 95.7174 42.8753 96.0554C42.3899 96.3669 41.8579 96.7315 41.2595 96.7315C41.2196 96.7315 41.1797 96.7315 41.1398 96.7315L41.1265 96.7248Z" fill="white"/>
<path d="M97.0741 49.92C97.247 49.9332 97.4199 49.9796 97.5861 50.0591C98.005 50.2779 98.138 50.6755 98.0449 51.1262C97.9518 51.5769 97.6925 51.9282 97.3401 52.2132C97.0608 52.4385 96.7616 52.6175 96.4158 52.697C96.0301 52.7831 95.6378 52.803 95.2854 52.5711C95.0194 52.3921 94.913 52.1403 94.9064 51.8354C94.8997 51.3781 95.1192 51.0135 95.4118 50.6888C95.8107 50.2447 96.4624 49.8802 97.0807 49.92H97.0741Z" fill="white"/>
<path d="M99.9934 53.8638C99.9402 54.2681 99.6078 54.6459 99.2421 54.8514C98.6769 55.1761 98.0718 55.2557 97.4401 55.0568C97.1541 54.964 96.9214 54.805 96.7685 54.5399C96.6023 54.2483 96.6289 53.9633 96.7618 53.665C96.8948 53.3668 97.1409 53.1679 97.4135 53.0155C97.9188 52.7239 98.4707 52.6311 99.0426 52.757C99.3617 52.8299 99.641 52.9757 99.8339 53.2541C99.9735 53.4529 100.013 53.665 99.9868 53.8638H99.9934Z" fill="white"/>
<path d="M95.9904 60.8427C95.4119 60.8228 94.8733 60.2727 94.5741 59.8352C94.3081 59.4442 94.1485 59.0134 94.195 58.523C94.2283 58.1518 94.4477 57.8867 94.8068 57.8138C95.0329 57.7674 95.2523 57.8005 95.4651 57.8933C96.0037 58.1253 96.396 58.5097 96.662 59.0267C96.7949 59.2785 96.888 59.5436 96.9013 59.8352C96.9279 60.3456 96.5822 60.8294 96.0436 60.8427C96.0236 60.8427 96.0103 60.8427 95.9904 60.8427Z" fill="white"/>
<path d="M96.3894 57.0783C96.3229 56.5547 96.5623 56.2034 97.0144 56.0576C97.3735 55.945 97.7193 55.998 98.0717 56.1107C98.5571 56.2697 98.9361 56.5613 99.2087 56.9855C99.3284 57.1711 99.4148 57.3765 99.4148 57.6019C99.4148 57.9996 99.2353 58.2514 98.8629 58.4171C98.5637 58.5497 98.2579 58.5364 97.952 58.4635C97.3469 58.3309 96.8681 58.0062 96.549 57.4693C96.4559 57.3235 96.4027 57.1578 96.3894 57.065V57.0783Z" fill="white"/>
<path d="M95.8506 55.0168C95.9038 55.9778 95.0327 56.7864 94.308 57.2967C93.4901 57.8734 91.9208 58.6621 90.95 58.0457C90.4048 57.701 90.1853 57.0383 90.2984 56.4219C90.4314 55.6862 90.9899 55.1891 91.6549 54.8975C91.5352 54.9505 91.2027 54.4071 91.1495 54.3143C90.7173 53.5918 90.3383 52.1205 91.3689 51.6632C92.0871 51.345 92.8916 51.8222 93.5034 52.1669C94.0553 52.485 94.5473 52.8959 94.9596 53.3864C95.332 53.8304 95.7642 54.301 95.844 54.8909C95.844 54.9307 95.8506 54.9704 95.8573 55.0102L95.8506 55.0168Z" fill="white"/>
<path d="M2.61304 45.4401C2.44015 45.4136 2.26727 45.3539 2.11433 45.2612C1.70872 45.0093 1.61563 44.605 1.74197 44.161C1.86831 43.7169 2.15423 43.3921 2.53324 43.1337C2.82582 42.9348 3.14499 42.7758 3.4974 42.7294C3.88972 42.6697 4.28203 42.683 4.6145 42.9481C4.86718 43.1469 4.95362 43.4054 4.93367 43.7103C4.90707 44.1676 4.66105 44.5122 4.34188 44.8105C3.90302 45.2214 3.23143 45.5329 2.61969 45.4401H2.61304Z" fill="white"/>
<path d="M0.0199572 41.2713C0.106399 40.8737 0.472115 40.5224 0.851129 40.3435C1.44292 40.0651 2.05467 40.032 2.66641 40.2838C2.94568 40.3965 3.16511 40.5754 3.29145 40.8538C3.43109 41.152 3.38454 41.4437 3.23161 41.722C3.07202 42.007 2.8127 42.186 2.52677 42.3185C1.99482 42.5704 1.44292 42.6168 0.877727 42.4444C0.565206 42.345 0.299231 42.1793 0.126347 41.8877C9.0304e-06 41.6756 -0.0199391 41.4635 0.0199572 41.2647V41.2713Z" fill="white"/>
<path d="M4.5749 34.6369C5.14674 34.6965 5.6388 35.293 5.90477 35.7503C6.14415 36.1612 6.25719 36.6053 6.1774 37.0891C6.11755 37.4603 5.87817 37.7055 5.51246 37.7453C5.28638 37.7718 5.06695 37.7188 4.86747 37.6127C4.35547 37.3343 3.98975 36.9234 3.76367 36.3932C3.65063 36.1281 3.58414 35.8564 3.59079 35.5714C3.60409 35.061 3.9831 34.6103 4.5217 34.6369C4.54165 34.6369 4.55495 34.6369 4.5749 34.6369Z" fill="white"/>
<path d="M3.86983 38.3617C3.89643 38.8919 3.6238 39.2233 3.165 39.3294C2.79928 39.4089 2.45351 39.3294 2.12104 39.1902C1.65559 38.9913 1.29652 38.6732 1.05714 38.2225C0.957403 38.0303 0.88426 37.8182 0.897559 37.5929C0.930806 37.1952 1.13029 36.9566 1.5093 36.8241C1.82182 36.718 2.12104 36.7578 2.42027 36.8506C3.01206 37.0362 3.46422 37.3941 3.74349 37.9508C3.82329 38.1032 3.86318 38.2755 3.86983 38.3617Z" fill="white"/>
<path d="M4.24249 40.4554C4.26909 39.4877 5.2 38.752 5.96468 38.308C6.8291 37.7976 8.45155 37.1349 9.36916 37.8308C9.88116 38.2218 10.0474 38.8978 9.88781 39.501C9.69498 40.2234 9.09654 40.6741 8.41165 40.9127C8.53799 40.8729 8.82391 41.4429 8.87046 41.5357C9.24282 42.2912 9.50215 43.7825 8.43825 44.1603C7.70017 44.4187 6.93549 43.8819 6.35034 43.4842C5.82504 43.1263 5.36623 42.669 5.00052 42.1521C4.66805 41.6815 4.26909 41.1778 4.23584 40.5813C4.23584 40.5415 4.23584 40.5018 4.23584 40.462L4.24249 40.4554Z" fill="white"/>
</g>
<defs>
<clipPath id="clip0_135_593">
<rect width="100" height="101" fill="white"/>
</clipPath>
</defs>
</svg>
